<svg xmlns="http://www.w3.org/2000/svg" width="609.089" height="509.662" viewBox="0 0 609.089 509.662"><path d="M193.536,502.085A254.972,254.972,0,0,1,7.544,193.626,254.458,254.458,0,0,1,405.611,49.669c35.77-10.126,86.621-16.173,129.6,10.564l-.073-.073c49.1,30.525,73.946,96.093,73.946,194.881,0,93.543-24.77,156.561-73.581,187.3C513.8,455.97,487.643,462.891,457.7,462.891a224.137,224.137,0,0,1-48.521-5.609,253.094,253.094,0,0,1-215.645,44.8ZM130.883,49.378A239.938,239.938,0,1,0,378.655,460.341l.072.073c4.007-2.331,8.014-5.027,12.021-7.8-8.888-2.7-14.643-5.027-15.3-5.319L201.331,365.632c-44.221-15.955-76.714-50.779-83.926-92.524q-.218-1.2-.437-2.4c-.219-1.894-.51-3.716-.656-5.61a74.04,74.04,0,0,1-.509-8.014c0-.51-.074-.947-.074-1.457V254.9c0-45.169,29.433-85.966,76.86-106.437.291-.219,66.952-32.347,118.386-57.19l58.792-28.412a182.149,182.149,0,0,1,18.067-7.5A237.657,237.657,0,0,0,254.969,14.931,240.46,240.46,0,0,0,130.883,49.378ZM420.035,61.472c50.341,43.055,82.469,104.762,88.371,170.548a187.645,187.645,0,0,1-2.113,62.434c-1.165,7.65-2.55,14.79-4.3,21.711a252.114,252.114,0,0,1-78.244,129.168c30.816,5.245,71.906,5.756,106-16.756l-.146.073c42.837-28.412,64.621-86.767,64.621-173.462,0-93.325-22.512-154.667-66.952-182.351-19.9-12.4-42.264-16.667-63.608-16.666A195.06,195.06,0,0,0,420.035,61.472ZM340.99,160.916c34.751,22.8,54.713,57.262,54.713,94.636,0,35.043-17.995,68.19-49.322,90.92-25.133,18.286-57.189,28.341-90.265,28.413l125.6,58.938a195.313,195.313,0,0,0,23.823,7.576l-.073.074A237.661,237.661,0,0,0,487.57,312.6c1.6-6.484,2.987-13.332,4.154-20.763a173.308,173.308,0,0,0,1.967-58.064V233.4a240.641,240.641,0,0,0-91.066-167.2,210.366,210.366,0,0,0-26.373,9.981s-72.488,34.969-124.8,60.25c1.384-.074,2.768-.219,4.226-.219C286.862,136.219,316.366,144.743,340.99,160.916ZM130.738,255.333v1.748a66.147,66.147,0,0,0,.364,6.63c.145,1.749.364,3.57.656,5.319a3.219,3.219,0,0,1,.146.728c5.61,32.711,29.432,61.561,65.13,77.443l.729.364,9.471,4.444a146.438,146.438,0,0,0,48.52,8.16c30.089,0,59.157-9.034,81.959-25.572,27.465-19.961,43.2-48.738,43.2-78.972,0-32.273-17.485-62.216-48.009-82.251-22.2-14.561-48.85-22.282-77.1-22.292C186.93,151.121,130.956,197.877,130.738,255.333Zm48.228.146a76.2,76.2,0,1,1,76.2,76.2A76.268,76.268,0,0,1,178.966,255.479Zm43.857,0a32.419,32.419,0,1,0,32.419-32.419A32.4,32.4,0,0,0,222.823,255.479Z" fill="#3262AF"/></svg>