<svg xmlns="http://www.w3.org/2000/svg" xmlns:xlink="http://www.w3.org/1999/xlink" width="1575" height="651" viewBox="0 0 1575 651"><defs><clipPath id="a"><rect width="1575" height="651" transform="translate(-294 1027)" fill="#2d5599"/></clipPath></defs><g transform="translate(294 -1027)" clip-path="url(#a)"><path d="M6358.6-1540.535c-83.062-20.57-153.183-72.361-197.515-145.913a318.933,318.933,0,0,1-36.8-242.882,318.828,318.828,0,0,1,145.842-197.8c73.335-44.352,159.609-57.3,242.855-36.731a319.854,319.854,0,0,1,112.8,53.077c45.065-12.764,109.126-20.387,163.279,13.315l-.091-.093c61.861,38.476,93.157,121.12,93.157,245.638,0,117.906-31.205,197.335-92.7,236.087-27.349,17.171-60.3,25.9-98.022,25.9a282.237,282.237,0,0,1-61.126-7.071,322.007,322.007,0,0,1-28.818,19.743,319.189,319.189,0,0,1-165.116,46.28,322.975,322.975,0,0,1-77.744-9.545Zm-78.932-570.613a300.586,300.586,0,0,0-137.307,186.317,300.529,300.529,0,0,0,34.7,228.831,300.161,300.161,0,0,0,186.04,137.468,300.425,300.425,0,0,0,228.717-34.62l.095.094c5.05-2.939,10.1-6.338,15.146-9.827-11.2-3.4-18.448-6.335-19.274-6.7l-219.359-102.938c-55.71-20.11-96.646-64-105.733-116.622q-.272-1.513-.551-3.03c-.275-2.388-.643-4.682-.826-7.07a93.356,93.356,0,0,1-.642-10.1c0-.642-.095-1.193-.095-1.837v-.917c0-56.934,37.08-108.356,96.832-134.159.368-.275,84.347-40.771,149.146-72.084l74.066-35.813a230.265,230.265,0,0,1,22.762-9.459,298.835,298.835,0,0,0-94.994-42.148,301.62,301.62,0,0,0-72.4-8.8,302.821,302.821,0,0,0-156.319,43.415Zm364.284,15.243c63.42,54.27,103.9,132.047,111.331,214.968a236.714,236.714,0,0,1-2.662,78.694c-1.467,9.643-3.212,18.642-5.414,27.365a317.8,317.8,0,0,1-98.575,162.811c38.825,6.611,90.591,7.253,133.543-21.12l-.183.091c53.968-35.813,81.41-109.365,81.41-218.64,0-117.63-28.362-194.947-84.348-229.842-25.074-15.625-53.246-21.007-80.136-21.006a245.621,245.621,0,0,0-54.961,6.684Zm-99.584,125.345c43.78,28.742,68.93,72.177,68.93,119.283,0,44.169-22.672,85.949-62.138,114.6-31.666,23.049-72.05,35.719-113.717,35.813l158.231,74.287a245.933,245.933,0,0,0,30.014,9.55l-.093.093a299.579,299.579,0,0,0,103.438-162.442c2.021-8.172,3.764-16.8,5.232-26.172a218.525,218.525,0,0,0,2.478-73.185v-.46a303.344,303.344,0,0,0-114.727-210.743,264.6,264.6,0,0,0-33.227,12.583s-91.322,44.076-157.223,75.94c1.744-.091,3.487-.275,5.324-.275,39.286,0,76.461,10.744,107.482,31.129Zm-264.884,119.008v2.2a83.239,83.239,0,0,0,.46,8.357c.183,2.2.46,4.5.825,6.7a4.049,4.049,0,0,1,.184.92c7.068,41.23,37.08,77.592,82.054,97.611l.918.459,11.931,5.6a184.432,184.432,0,0,0,61.127,10.283c37.907,0,74.528-11.385,103.254-32.23,34.6-25.161,54.429-61.432,54.429-99.542,0-40.68-22.027-78.419-60.484-103.671-27.968-18.349-61.523-28.082-97.1-28.1-86.783.044-157.319,58.983-157.6,131.413Zm60.76.184a96.111,96.111,0,0,1,96.006-96.052,96.107,96.107,0,0,1,96,96.052,96.1,96.1,0,0,1-96,96.05,96.109,96.109,0,0,1-96-96.05Zm55.253,0a40.824,40.824,0,0,0,11.951,28.9,40.827,40.827,0,0,0,28.893,11.964,40.823,40.823,0,0,0,28.892-11.964,40.82,40.82,0,0,0,11.949-28.9,40.822,40.822,0,0,0-11.949-28.9,40.823,40.823,0,0,0-28.892-11.965,40.828,40.828,0,0,0-28.892,11.966,40.829,40.829,0,0,0-11.95,28.9Z" transform="translate(-6196.629 3200.475)" fill="#209059"/></g></svg>