<svg xmlns="http://www.w3.org/2000/svg" xmlns:xlink="http://www.w3.org/1999/xlink" width="210.768" height="44.011" viewBox="0 0 210.768 44.011"><defs><clipPath id="a"><rect width="210.768" height="44.011" fill="none"/></clipPath><clipPath id="b"><rect width="52.599" height="44.011" fill="none"/></clipPath></defs><g transform="translate(0 124)"><g transform="translate(0 -124)" clip-path="url(#a)"><path d="M73.153,28.019A4.206,4.206,0,0,0,77.488,31.3c1.878,0,3.587-.68,3.587-2.456,0-.918-.51-1.776-2.762-2.558L75.72,25.4c-5.295-1.81-6.077-5.125-6.077-7.105,0-4.3,3.383-6.969,8.057-6.969a8.146,8.146,0,0,1,7.989,5.227l-4.3,2.15A3.783,3.783,0,0,0,77.7,16.01c-1.64,0-2.907.646-2.907,2.218,0,.612.17,1.742,2.558,2.558l2.524.884c5.363,1.674,6.315,4.879,6.349,7.071,0,5.023-4.369,7.241-8.567,7.241-4.573,0-8.737-2.592-9.222-7.037l4.709-.926Z" transform="translate(-10.271 -1.7)" fill="#fff"/><path d="M94.316,34.436V10.528h15.876v4.2H99.611V20.6H108.8v4.2H99.611v5.431h10.581v4.2H94.316ZM106.98,3.567l-4.641,5.261H98.651l2.975-5.261h5.354Z" transform="translate(-14.155 -0.535)" fill="#fff"/><path d="M117.455,19.211h5.091V21.6a6.229,6.229,0,0,1,5.431-2.762c4.921,0,6.247,3.927,6.247,8.363v9.528h-5.091V27.3c0-2.422-.884-4.267-3.247-4.267s-3.349,1.878-3.349,4.3v9.392h-5.091V19.211Z" transform="translate(-17.627 -2.827)" fill="#fff"/><path d="M155.787,26.784c.612,2.524,1.572,4.573,3.961,4.573a3.738,3.738,0,0,0,2.422-1.028l1.878,3.655a7.646,7.646,0,0,1-5.329,2.048c-5.669,0-7.411-6.349-7.683-8.882h-3.179v8.5H142.6V11.757h10.615c4.921,0,7.615,3.655,7.615,7.853a7.246,7.246,0,0,1-5.057,7.173Zm-3.247-3.859c1.878,0,3.009-1.368,3.009-3.349s-1.13-3.383-3.009-3.383h-4.675v6.723h4.675Z" transform="translate(-21.401 -1.764)" fill="#fff"/><path d="M187.921,35.5c0,6.9-4.5,9.6-9.494,9.6-3.893,0-6.519-.986-8.3-2.422l2.014-3.961a9.324,9.324,0,0,0,5.261,1.98c2.626,0,5.431-.782,5.431-4.607V34.17a6.284,6.284,0,0,1-5.5,2.941c-5.329,0-8.533-4.1-8.533-9.222s2.975-9.052,8.431-9.052a7.041,7.041,0,0,1,5.6,2.762V19.211h5.091V35.5ZM178.4,32.971a4.393,4.393,0,0,0,4.573-4.785c0-3.179-1.946-5.227-4.709-5.227s-4.369,2.252-4.369,4.955S175.605,32.971,178.4,32.971Z" transform="translate(-25.335 -2.827)" fill="#fff"/><path d="M199.049,10.4a3.014,3.014,0,0,1,3.247,2.9,3.257,3.257,0,0,1-6.459,0,2.979,2.979,0,0,1,3.213-2.9m-2.592,7.547h5.091V35.461h-5.091Z" transform="translate(-29.392 -1.56)" fill="#fff"/><path d="M224.693,33.65a11,11,0,0,1-8.159,3.451c-6.485,0-10.038-4.063-10.038-9.052a9.33,9.33,0,0,1,9.664-9.222c4.845,0,9.494,3.349,9.494,10.31h-14.1c.1,2.184,2.116,3.791,5.363,3.791a7.365,7.365,0,0,0,4.845-2.082l2.932,2.8Zm-13.046-7.581h8.78c-.34-2.252-2.626-3.111-4.335-3.111a4.286,4.286,0,0,0-4.437,3.111Z" transform="translate(-30.991 -2.825)" fill="#fff"/><path d="M234.6,30.546a3.558,3.558,0,0,0,3.689,2.626c1.13,0,2.286-.442,2.286-1.334,0-.578-.34-.986-1.3-1.334L236.2,29.2c-4.165-1.47-4.369-4.233-4.369-5.023,0-3.519,3.111-5.363,6.867-5.363a6.6,6.6,0,0,1,6.315,3.689l-3.927,1.81a2.444,2.444,0,0,0-2.49-1.674c-.96,0-1.946.544-1.946,1.436,0,.748.748,1.164,1.64,1.5l2.626,1.028c4.131,1.2,4.5,3.893,4.5,5.057,0,3.587-3.315,5.431-7.173,5.431-2.592,0-6.145-.816-7.343-4.471l3.689-2.082Z" transform="translate(-34.655 -2.824)" fill="#fff"/><g transform="translate(0 0)"><g transform="translate(0 0)" clip-path="url(#b)"><path d="M46.217,5.2c-3.71-2.311-8.107-1.784-11.189-.913A21.987,21.987,0,0,0,3.17,33.358a21.838,21.838,0,0,0,13.543,10,21.894,21.894,0,0,0,16.648-2.512A21.644,21.644,0,0,0,35.338,39.5a19.508,19.508,0,0,0,4.187.486,12.361,12.361,0,0,0,6.717-1.775c4.213-2.655,6.357-8.1,6.357-16.172,0-8.534-2.152-14.2-6.391-16.833ZM32.7,39.757A20.729,20.729,0,0,1,1.889,17.028a20.675,20.675,0,0,1,31.6-12.244c-.905.327-1.483.611-1.559.645L26.854,7.882c-4.447,2.144-10.2,4.924-10.226,4.933-4.1,1.767-6.641,5.285-6.641,9.2v.184a6.45,6.45,0,0,0,.042.7c.017.159.033.318.059.486.009.067.026.142.033.209a10.783,10.783,0,0,0,7.253,7.99l15.033,7.052c.059.025.553.226,1.315.461-.343.243-.694.469-1.038.678ZM22.08,13.041a12.067,12.067,0,0,1,6.667,1.926,8.526,8.526,0,0,1,4.145,7.1,8.465,8.465,0,0,1-3.735,6.817A12.143,12.143,0,0,1,22.072,31.1a12.7,12.7,0,0,1-4.195-.7l-.821-.385-.068-.033a9.245,9.245,0,0,1-5.628-6.691.157.157,0,0,0-.008-.059c-.025-.151-.042-.31-.059-.461-.018-.193-.034-.377-.034-.569v-.151c.017-4.966,4.857-9,10.812-9ZM35.019,38.115a17.709,17.709,0,0,1-2.06-.653L22.115,32.37a13.371,13.371,0,0,0,7.8-2.454,9.753,9.753,0,0,0,4.264-7.856,9.811,9.811,0,0,0-4.723-8.174,13.343,13.343,0,0,0-7.362-2.136c-.125,0-.243.017-.368.017,4.522-2.177,10.779-5.2,10.779-5.2A18.2,18.2,0,0,1,34.776,5.7a20.776,20.776,0,0,1,7.865,14.438v.025a14.889,14.889,0,0,1-.168,5.017c-.1.645-.218,1.231-.36,1.792a20.445,20.445,0,0,1-7.093,11.13ZM45.747,37.01c-2.939,1.943-6.49,1.9-9.154,1.449A21.72,21.72,0,0,0,43.352,27.3c.151-.6.268-1.214.377-1.876a16.244,16.244,0,0,0,.185-5.393A22.129,22.129,0,0,0,36.285,5.3c2.687-.62,6.289-.871,9.262.98,3.836,2.387,5.788,7.688,5.788,15.745,0,7.487-1.876,12.529-5.578,14.974Z" transform="translate(0 0)" fill="#fff"/><path d="M25.038,31.647a6.583,6.583,0,1,0-6.583-6.583,6.594,6.594,0,0,0,6.583,6.583m0-9.388a2.806,2.806,0,1,1-2.806,2.806,2.806,2.806,0,0,1,2.806-2.806" transform="translate(-2.999 -3.004)" fill="#fff"/></g></g></g></g></svg>