<svg xmlns="http://www.w3.org/2000/svg" width="292.465" height="76.056" viewBox="0 0 292.465 76.056"><g transform="translate(-222.515 -5356.882)"><g transform="translate(306.93 5288.922)"><path d="M7.463,98.276a5.7,5.7,0,0,0,5.88,4.445c2.543,0,4.865-.922,4.865-3.337,0-1.248-.7-2.4-3.756-3.476l-3.523-1.2C3.753,92.256,2.68,87.764,2.68,85.07c0-5.833,4.585-9.45,10.931-9.45A11.045,11.045,0,0,1,24.449,82.7l-5.833,2.917c-1.388-3.29-3.663-3.663-5-3.663-2.228,0-3.931.875-3.931,3.01,0,.828.233,2.357,3.476,3.477l3.43,1.2c7.268,2.275,8.563,6.626,8.61,9.59,0,6.813-5.926,9.823-11.619,9.823-6.206,0-11.853-3.523-12.506-9.543l6.393-1.248Z" transform="translate(0 1.276)" fill="#2d559a"/><path d="M26.63,109.83V77.41H48.166V83.1H33.8V91.07H46.264v5.693H33.8v7.361H48.166v5.693H26.63ZM43.814,67.96l-6.3,7.128h-5l4.025-7.128H43.8Z" transform="translate(4.258)" fill="#bb8526"/><path d="M49.5,83.563H56.4v3.243a8.455,8.455,0,0,1,7.361-3.756c6.673,0,8.47,5.331,8.47,11.351v12.926H65.321V94.541c0-3.29-1.2-5.786-4.4-5.786s-4.538,2.543-4.538,5.833v12.739H49.49V83.575Z" transform="translate(8.067 2.514)" fill="#bb8526"/><path d="M92.222,96.441c.828,3.43,2.135,6.206,5.366,6.206a5.161,5.161,0,0,0,3.29-1.388l2.543,4.958c-2.135,1.668-3.885,2.777-7.221,2.777-7.688,0-10.044-8.61-10.418-12.039h-4.3V108.48H74.35V76.06H88.758c6.673,0,10.324,4.958,10.324,10.651a9.82,9.82,0,0,1-6.86,9.729Zm-4.4-5.238c2.543,0,4.071-1.855,4.071-4.538s-1.528-4.585-4.071-4.585H81.478V91.2Z" transform="translate(12.209 1.35)" fill="#bb8526"/><path d="M126.175,105.651c0,9.356-6.113,13.008-12.879,13.008-5.285,0-8.843-1.342-11.258-3.29l2.73-5.378a12.59,12.59,0,0,0,7.128,2.683c3.57,0,7.361-1.062,7.361-6.253v-2.59a8.51,8.51,0,0,1-7.455,3.978c-7.221,0-11.573-5.553-11.573-12.506s4.025-12.273,11.444-12.273a9.5,9.5,0,0,1,7.595,3.756V83.543h6.895v22.1Zm-12.926-3.43c3.383,0,6.206-2.182,6.206-6.486s-2.637-7.081-6.393-7.081-5.926,3.057-5.926,6.72,2.322,6.86,6.113,6.86Z" transform="translate(16.521 2.511)" fill="#2d559a"/><path d="M131.3,74.71c2.45,0,4.4,1.622,4.4,3.931s-1.948,3.85-4.4,3.85-4.351-1.575-4.351-3.85A4.036,4.036,0,0,1,131.3,74.71ZM127.79,108.7V84.953h6.895V108.7Z" transform="translate(20.973 1.125)" fill="#2d559a"/><path d="M162.155,103.151a14.89,14.89,0,0,1-11.071,4.678c-8.8,0-13.614-5.506-13.614-12.273s5.46-12.506,13.1-12.506c6.58,0,12.879,4.538,12.879,13.988H144.318c.14,2.963,2.87,5.145,7.268,5.145a10.062,10.062,0,0,0,6.58-2.823l3.978,3.791ZM144.47,92.873h11.9c-.467-3.057-3.57-4.211-5.88-4.211S145.3,89.676,144.47,92.873Z" transform="translate(22.725 2.514)" fill="#2d559a"/><path d="M166.613,98.939a4.843,4.843,0,0,0,5,3.57c1.528,0,3.1-.607,3.1-1.808,0-.782-.467-1.342-1.762-1.808l-4.165-1.762c-5.646-1.995-5.926-5.74-5.926-6.813,0-4.771,4.211-7.268,9.31-7.268a8.935,8.935,0,0,1,8.563,5l-5.331,2.45a3.322,3.322,0,0,0-3.383-2.275c-1.295,0-2.637.747-2.637,1.948,0,1.015,1.015,1.575,2.228,2.042l3.57,1.388c5.6,1.622,6.113,5.285,6.113,6.86,0,4.865-4.491,7.361-9.73,7.361-3.523,0-8.341-1.108-9.951-6.066l5-2.823Z" transform="translate(26.749 2.514)" fill="#2d559a"/></g><g transform="translate(282.93 5293.922)"><path d="M31.453,122.953v1.1h-4.8v-7.53h1.374v6.433h3.419Z" transform="translate(0.036 0.016)" fill="#bb8526"/><path d="M34.46,118.37a2.846,2.846,0,1,1-2.95,2.844A2.931,2.931,0,0,1,34.46,118.37Zm0,4.548a1.718,1.718,0,1,0-1.619-1.715A1.65,1.65,0,0,0,34.46,122.918Z" transform="translate(0.352 0.136)" fill="#bb8526"/><path d="M40.827,118.37a3.425,3.425,0,0,1,2.1.735l-.618.948a2.3,2.3,0,0,0-1.416-.49,1.667,1.667,0,1,0,0,3.323,2.358,2.358,0,0,0,1.416-.49l.618.937a3.4,3.4,0,0,1-2.1.746,2.809,2.809,0,0,1-3.067-2.812,2.839,2.839,0,0,1,3.067-2.876Z" transform="translate(0.758 0.136)" fill="#bb8526"/><path d="M48.988,118.488v5.442H47.667v-.82a2.149,2.149,0,0,1-1.864.937,2.677,2.677,0,0,1-2.673-2.865,2.62,2.62,0,0,1,2.684-2.822,2.2,2.2,0,0,1,1.853.927v-.809h1.321Zm-2.918,4.452a1.577,1.577,0,0,0,1.629-1.693,1.632,1.632,0,0,0-1.661-1.779,1.589,1.589,0,0,0-1.566,1.725,1.634,1.634,0,0,0,1.608,1.747Z" transform="translate(1.107 0.135)" fill="#bb8526"/><path d="M50.07,124.065V116.28h1.321v7.785Z" transform="translate(1.559 0)" fill="#bb8526"/><path d="M57.981,123a3.142,3.142,0,0,1-2.46,1.044,2.855,2.855,0,0,1-3.131-2.822,2.893,2.893,0,0,1,2.982-2.865,2.763,2.763,0,0,1,2.865,3.025H53.721c0,.863.7,1.534,1.874,1.534a2.317,2.317,0,0,0,1.651-.671l.756.746Zm-4.207-2.5h3.1a1.44,1.44,0,0,0-1.5-1.076A1.608,1.608,0,0,0,53.775,120.5Z" transform="translate(1.709 0.135)" fill="#bb8526"/><path d="M59.454,122.194a1.136,1.136,0,0,0,1.161.788c.383,0,.82-.138.82-.575,0-.277-.256-.437-.6-.586l-.8-.3c-1.086-.4-1.363-1.022-1.363-1.512,0-1.012.863-1.651,1.992-1.651a1.875,1.875,0,0,1,1.906,1.214l-1.065.383a.834.834,0,0,0-.831-.564.642.642,0,0,0-.714.575c0,.3.266.447.575.564l.809.288c1.161.383,1.385,1.086,1.385,1.566,0,1.076-1,1.661-2.13,1.661a2.126,2.126,0,0,1-2.194-1.406l1.044-.437Z" transform="translate(2.101 0.135)" fill="#bb8526"/><path d="M70.68,123.237a2.764,2.764,0,0,1-2.226.937c-1.47,0-2.695-.777-2.695-2.13a2.69,2.69,0,0,1,1.9-2.29,2.353,2.353,0,0,1-.767-1.608A1.787,1.787,0,0,1,68.9,116.4a1.821,1.821,0,0,1,2.013,1.725,2.417,2.417,0,0,1-1.47,1.906l1.182,1.331.927-1.289H72.8v.213l-1.416,1.938.437.479a.945.945,0,0,0,.682.32,1.235,1.235,0,0,0,.873-.351l.447.895a1.853,1.853,0,0,1-1.385.607,2.1,2.1,0,0,1-1.576-.735l-.181-.2Zm-2.29-2.631c-.618.2-1.3.692-1.3,1.374s.628,1.108,1.385,1.108a1.754,1.754,0,0,0,1.438-.746L68.391,120.6Zm.351-1.31c.639-.341.937-.756.937-1.129a.741.741,0,0,0-.756-.746.756.756,0,0,0-.767.788A1.637,1.637,0,0,0,68.742,119.3Z" transform="translate(2.579 0.008)" fill="#bb8526"/><path d="M77.99,119.691a1.539,1.539,0,0,1,1.48-1.321,1.514,1.514,0,0,1,.447.075v1.3a1.946,1.946,0,0,0-.628-.106c-.479,0-1.289.266-1.289,1.779v2.513H76.68v-5.442h1.3v1.2Z" transform="translate(3.289 0.136)" fill="#bb8526"/><path d="M85.7,123a3.142,3.142,0,0,1-2.46,1.044,2.855,2.855,0,0,1-3.131-2.822,2.893,2.893,0,0,1,2.982-2.865,2.763,2.763,0,0,1,2.865,3.025H81.441c0,.863.7,1.534,1.874,1.534a2.318,2.318,0,0,0,1.651-.671l.756.746Zm-4.207-2.5h3.1a1.44,1.44,0,0,0-1.5-1.076A1.608,1.608,0,0,0,81.495,120.5Z" transform="translate(3.512 0.135)" fill="#bb8526"/><path d="M87.174,122.194a1.136,1.136,0,0,0,1.161.788c.383,0,.82-.138.82-.575,0-.277-.256-.437-.6-.586l-.8-.3c-1.086-.4-1.363-1.022-1.363-1.512,0-1.012.863-1.651,1.992-1.651a1.875,1.875,0,0,1,1.906,1.214l-1.065.383a.834.834,0,0,0-.831-.564.642.642,0,0,0-.714.575c0,.3.266.447.575.564l.809.288c1.161.383,1.385,1.086,1.385,1.566,0,1.076-1,1.661-2.13,1.661a2.126,2.126,0,0,1-2.194-1.406l1.044-.437Z" transform="translate(3.903 0.135)" fill="#bb8526"/><path d="M91.24,126.39v-7.913h1.321v.82a2.149,2.149,0,0,1,1.864-.937,2.677,2.677,0,0,1,2.673,2.865,2.62,2.62,0,0,1-2.684,2.822,2.2,2.2,0,0,1-1.853-.927v3.27H91.24Zm2.918-6.912a1.577,1.577,0,0,0-1.629,1.693,1.632,1.632,0,0,0,1.661,1.779,1.6,1.6,0,0,0,1.576-1.725,1.634,1.634,0,0,0-1.608-1.747Z" transform="translate(4.236 0.135)" fill="#bb8526"/><path d="M100.41,118.37a2.846,2.846,0,1,1-2.95,2.844A2.931,2.931,0,0,1,100.41,118.37Zm0,4.548a1.718,1.718,0,1,0-1.619-1.715A1.65,1.65,0,0,0,100.41,122.918Z" transform="translate(4.64 0.136)" fill="#bb8526"/><path d="M104.07,118.487h1.321v.916a1.828,1.828,0,0,1,1.768-1.033c1.353,0,2.013.98,2.013,2.545v3.014h-1.321v-3c0-.948-.394-1.438-1.054-1.438-.777,0-1.4.586-1.4,1.725v2.726h-1.321V118.5Z" transform="translate(5.07 0.136)" fill="#bb8526"/><path d="M110.8,122.194a1.136,1.136,0,0,0,1.161.788c.383,0,.82-.138.82-.575,0-.277-.256-.437-.6-.586l-.8-.3c-1.086-.4-1.363-1.022-1.363-1.512,0-1.012.863-1.651,1.992-1.651a1.875,1.875,0,0,1,1.906,1.214l-1.065.383a.834.834,0,0,0-.831-.564.642.642,0,0,0-.714.575c0,.3.266.447.575.564l.809.288c1.161.383,1.385,1.086,1.385,1.566,0,1.076-1,1.661-2.13,1.661a2.126,2.126,0,0,1-2.194-1.406l1.044-.437Z" transform="translate(5.44 0.135)" fill="#bb8526"/><path d="M120.388,118.488v5.442h-1.321v-.82a2.149,2.149,0,0,1-1.864.937,2.677,2.677,0,0,1-2.673-2.865,2.62,2.62,0,0,1,2.684-2.822,2.2,2.2,0,0,1,1.853.927v-.809h1.321Zm-2.918,4.452a1.577,1.577,0,0,0,1.629-1.693,1.632,1.632,0,0,0-1.661-1.779,1.589,1.589,0,0,0-1.566,1.725,1.634,1.634,0,0,0,1.608,1.747Z" transform="translate(5.75 0.135)" fill="#bb8526"/><path d="M124.624,124.182a2.162,2.162,0,0,1-1.864-.937v.82H121.44V116.28h1.321v3.142a2.188,2.188,0,0,1,1.853-.927,2.648,2.648,0,0,1,2.684,2.822A2.707,2.707,0,0,1,124.624,124.182Zm-.245-4.569a1.636,1.636,0,0,0-1.651,1.779,1.58,1.58,0,0,0,1.619,1.693,1.616,1.616,0,0,0,1.608-1.747,1.56,1.56,0,0,0-1.566-1.725Z" transform="translate(6.199 0)" fill="#bb8526"/><path d="M128.03,124.065V116.28h1.321v7.785Z" transform="translate(6.628 0)" fill="#bb8526"/><path d="M135.951,123a3.142,3.142,0,0,1-2.46,1.044,2.855,2.855,0,0,1-3.131-2.822,2.893,2.893,0,0,1,2.982-2.865,2.763,2.763,0,0,1,2.865,3.025h-4.516c0,.863.7,1.534,1.874,1.534a2.317,2.317,0,0,0,1.651-.671l.756.746Zm-4.207-2.5h3.1a1.44,1.44,0,0,0-1.5-1.076A1.608,1.608,0,0,0,131.745,120.5Z" transform="translate(6.779 0.135)" fill="#bb8526"/><path d="M137.424,122.194a1.136,1.136,0,0,0,1.161.788c.383,0,.82-.138.82-.575,0-.277-.256-.437-.6-.586l-.8-.3c-1.086-.4-1.363-1.022-1.363-1.512,0-1.012.863-1.651,1.992-1.651a1.868,1.868,0,0,1,1.906,1.214l-1.065.383a.826.826,0,0,0-.831-.564.642.642,0,0,0-.714.575c0,.3.266.447.564.564l.809.288c1.161.383,1.385,1.086,1.385,1.566,0,1.076-1,1.661-2.13,1.661a2.126,2.126,0,0,1-2.194-1.406l1.044-.437Z" transform="translate(7.17 0.135)" fill="#bb8526"/><path d="M31.691,133.264a3.141,3.141,0,0,1-2.46,1.044,2.855,2.855,0,0,1-3.131-2.822,2.893,2.893,0,0,1,2.982-2.865,2.763,2.763,0,0,1,2.865,3.025H27.431c0,.863.7,1.534,1.874,1.534a2.317,2.317,0,0,0,1.651-.671l.756.746Zm-4.207-2.513h3.1a1.44,1.44,0,0,0-1.5-1.076A1.608,1.608,0,0,0,27.485,130.75Z" transform="translate(0 0.802)" fill="#2d559a"/><path d="M32.56,128.737h1.321v.916a1.828,1.828,0,0,1,1.768-1.033c1.353,0,2.013.98,2.013,2.545v3.014H36.341v-3c0-.948-.394-1.438-1.054-1.438-.777,0-1.4.586-1.4,1.725v2.726H32.571v-5.442Z" transform="translate(0.42 0.802)" fill="#2d559a"/><path d="M41.26,136.65v-7.913h1.321v.82a2.149,2.149,0,0,1,1.864-.937,2.677,2.677,0,0,1,2.673,2.865,2.62,2.62,0,0,1-2.684,2.822,2.2,2.2,0,0,1-1.853-.927v3.27H41.26Zm2.918-6.923a1.577,1.577,0,0,0-1.629,1.693A1.632,1.632,0,0,0,44.21,133.2a1.6,1.6,0,0,0,1.576-1.725,1.634,1.634,0,0,0-1.608-1.747Z" transform="translate(0.986 0.802)" fill="#2d559a"/><path d="M53.358,128.738v5.442H52.037v-.82a2.149,2.149,0,0,1-1.864.937,2.677,2.677,0,0,1-2.673-2.865,2.62,2.62,0,0,1,2.684-2.822,2.2,2.2,0,0,1,1.853.927v-.809h1.321ZM50.439,133.2a1.577,1.577,0,0,0,1.629-1.693,1.632,1.632,0,0,0-1.661-1.779,1.589,1.589,0,0,0-1.566,1.725A1.634,1.634,0,0,0,50.45,133.2Z" transform="translate(1.392 0.802)" fill="#2d559a"/><path d="M58.249,128.73h1.48l-3.376,7.913h-1.3l1.108-2.79L53.85,128.73h1.491l1.48,3.738,1.416-3.738Z" transform="translate(1.804 0.81)" fill="#2d559a"/><path d="M60.624,132.454a1.136,1.136,0,0,0,1.161.788c.383,0,.82-.138.82-.575,0-.277-.256-.437-.6-.586l-.8-.3c-1.086-.4-1.363-1.022-1.363-1.512,0-1.012.863-1.651,1.992-1.651a1.875,1.875,0,0,1,1.906,1.214l-1.065.383a.834.834,0,0,0-.831-.564.642.642,0,0,0-.714.575c0,.3.266.447.575.564l.809.288c1.161.383,1.385,1.086,1.385,1.566,0,1.076-1,1.661-2.13,1.661A2.126,2.126,0,0,1,59.58,132.9l1.044-.437Z" transform="translate(2.177 0.802)" fill="#2d559a"/><path d="M70.218,128.738v5.442H68.9v-.82a2.149,2.149,0,0,1-1.864.937,2.677,2.677,0,0,1-2.673-2.865,2.62,2.62,0,0,1,2.684-2.822,2.2,2.2,0,0,1,1.853.927v-.809h1.321ZM67.3,133.2a1.577,1.577,0,0,0,1.629-1.693,1.632,1.632,0,0,0-1.661-1.779,1.589,1.589,0,0,0-1.566,1.725A1.634,1.634,0,0,0,67.31,133.2Z" transform="translate(2.488 0.802)" fill="#2d559a"/><path d="M71.962,134.958a2.861,2.861,0,0,0,1.779.66,1.522,1.522,0,0,0,1.736-1.608v-.639a2.219,2.219,0,0,1-1.864.927,2.677,2.677,0,0,1-2.673-2.865,2.62,2.62,0,0,1,2.684-2.822,2.2,2.2,0,0,1,1.853.927v-.809H76.8v4.857c0,2.247-1.172,3.174-2.9,3.174a3.616,3.616,0,0,1-2.46-.777c.181-.341.351-.692.533-1.033Zm1.906-1.757a1.577,1.577,0,0,0,1.629-1.693,1.632,1.632,0,0,0-1.661-1.779,1.589,1.589,0,0,0-1.566,1.725,1.634,1.634,0,0,0,1.608,1.747Z" transform="translate(2.916 0.802)" fill="#2d559a"/><path d="M83.081,133.264a3.141,3.141,0,0,1-2.46,1.044,2.855,2.855,0,0,1-3.131-2.822,2.893,2.893,0,0,1,2.982-2.865,2.763,2.763,0,0,1,2.865,3.025H78.821c0,.863.7,1.534,1.874,1.534a2.317,2.317,0,0,0,1.651-.671l.756.746Zm-4.207-2.513h3.1a1.44,1.44,0,0,0-1.5-1.076A1.608,1.608,0,0,0,78.875,130.75Z" transform="translate(3.342 0.802)" fill="#2d559a"/><path d="M84.544,132.454a1.136,1.136,0,0,0,1.161.788c.383,0,.82-.138.82-.575,0-.277-.256-.437-.6-.586l-.8-.3c-1.086-.4-1.363-1.022-1.363-1.512,0-1.012.863-1.651,1.992-1.651a1.875,1.875,0,0,1,1.906,1.214l-1.065.383a.834.834,0,0,0-.831-.564.642.642,0,0,0-.714.575c0,.3.266.447.575.564l.809.288c1.161.383,1.385,1.086,1.385,1.566,0,1.076-1,1.661-2.13,1.661A2.126,2.126,0,0,1,83.5,132.9l1.044-.437Z" transform="translate(3.732 0.802)" fill="#2d559a"/><path d="M92.48,129.941a1.539,1.539,0,0,1,1.48-1.321,1.513,1.513,0,0,1,.447.075v1.3a1.946,1.946,0,0,0-.628-.107c-.479,0-1.289.266-1.289,1.779v2.513H91.17v-5.442h1.3v1.2Z" transform="translate(4.231 0.802)" fill="#2d559a"/><path d="M97.55,128.62a2.846,2.846,0,1,1-2.95,2.844A2.931,2.931,0,0,1,97.55,128.62Zm0,4.558a1.718,1.718,0,1,0-1.619-1.715A1.65,1.65,0,0,0,97.55,133.178Z" transform="translate(4.454 0.802)" fill="#2d559a"/><path d="M103.927,128.62a3.425,3.425,0,0,1,2.1.735l-.618.948a2.3,2.3,0,0,0-1.416-.49,1.667,1.667,0,1,0,0,3.323,2.357,2.357,0,0,0,1.416-.49l.618.937a3.4,3.4,0,0,1-2.1.746,2.809,2.809,0,0,1-3.067-2.812,2.839,2.839,0,0,1,3.067-2.876Z" transform="translate(4.861 0.802)" fill="#2d559a"/><path d="M106.65,126.54h1.321v3.248a1.813,1.813,0,0,1,1.757-1.033c1.353,0,2.024.98,2.024,2.545v3.014h-1.321v-3c0-.948-.4-1.438-1.065-1.438s-1.385.479-1.385,1.725v2.726h-1.321V126.54Z" transform="translate(5.238 0.667)" fill="#2d559a"/><path d="M118.021,133.264a3.141,3.141,0,0,1-2.46,1.044,2.855,2.855,0,0,1-3.131-2.822,2.893,2.893,0,0,1,2.982-2.865,2.763,2.763,0,0,1,2.865,3.025h-4.516c0,.863.7,1.534,1.874,1.534a2.317,2.317,0,0,0,1.651-.671l.756.746Zm-4.207-2.513h3.1a1.44,1.44,0,0,0-1.5-1.076A1.608,1.608,0,0,0,113.815,130.75Z" transform="translate(5.614 0.802)" fill="#2d559a"/><path d="M118.91,134.325V126.54h1.321v7.785Z" transform="translate(6.035 0.667)" fill="#2d559a"/><path d="M127.108,128.738v5.442h-1.321v-.82a2.149,2.149,0,0,1-1.864.937,2.677,2.677,0,0,1-2.673-2.865,2.62,2.62,0,0,1,2.684-2.822,2.2,2.2,0,0,1,1.853.927v-.809h1.321Zm-2.918,4.462a1.577,1.577,0,0,0,1.629-1.693,1.632,1.632,0,0,0-1.661-1.779,1.6,1.6,0,0,0-1.576,1.725A1.634,1.634,0,0,0,124.189,133.2Z" transform="translate(6.187 0.802)" fill="#2d559a"/><path d="M128.863,126.43a.853.853,0,0,1,.884.841.838.838,0,0,1-.884.831.82.82,0,0,1-.863-.831A.829.829,0,0,1,128.863,126.43Zm-.671,7.9V128.89h1.321v5.442Z" transform="translate(6.626 0.66)" fill="#2d559a"/><path d="M131.464,132.454a1.136,1.136,0,0,0,1.161.788c.383,0,.82-.138.82-.575,0-.277-.256-.437-.6-.586l-.8-.3c-1.086-.4-1.363-1.022-1.363-1.512,0-1.012.863-1.651,1.992-1.651a1.868,1.868,0,0,1,1.906,1.214l-1.065.383a.826.826,0,0,0-.831-.564.642.642,0,0,0-.714.575c0,.3.266.447.575.564l.809.288c1.161.383,1.385,1.086,1.385,1.566,0,1.076-1,1.661-2.13,1.661a2.126,2.126,0,0,1-2.194-1.406l1.044-.437Z" transform="translate(6.783 0.802)" fill="#2d559a"/></g><g transform="translate(195.93 5363.922)"><path d="M92.39,33.1a32.975,32.975,0,1,0-.84,10.87c.24-.95.42-1.9.57-2.85a24.1,24.1,0,0,0,.27-8.02" fill="#2d559a"/><path d="M87.39,8.57a28.559,28.559,0,0,0-7.9,1.22A33.049,33.049,0,0,1,92.38,33.1a23.838,23.838,0,0,1-.27,8.02c-.15.95-.33,1.9-.57,2.85A32.806,32.806,0,0,1,79.89,61.98a29.038,29.038,0,0,0,6.69.82c8.55,0,19.2-4.47,19.2-26.73S95.89,8.56,87.37,8.56" fill="#2dad6e"/><path d="M79.5,9.79a29.377,29.377,0,0,0-4.18,1.56S51.79,22.71,51.67,22.77c-5.72,2.47-9.65,7.48-9.65,13.28s3.83,10.69,9.44,13.19h0L76.07,60.79a27.3,27.3,0,0,0,3.85,1.19A32.842,32.842,0,0,0,91.57,43.97c.24-.95.42-1.9.57-2.85a24.1,24.1,0,0,0,.27-8.02A33.084,33.084,0,0,0,79.52,9.79" fill="#009e99"/><circle cx="9.67" cy="9.67" r="9.67" transform="matrix(0.257, -0.967, 0.967, 0.257, 47.786, 42.888)" fill="#fff"/><circle cx="4.32" cy="4.32" r="4.32" transform="translate(55.3 31.71)" fill="#bb8526"/><path d="M70.51,24.26a19.771,19.771,0,0,0-10.83-3.13c-9.76,0-17.67,6.68-17.67,14.92s7.91,14.92,17.67,14.92a19.643,19.643,0,0,0,11.51-3.6,14.075,14.075,0,0,0,6.17-11.32c0-4.8-2.68-9.06-6.85-11.79ZM59.69,44.99a8.941,8.941,0,0,1,0-17.88,8.682,8.682,0,0,1,2.89.49,8.993,8.993,0,0,1,.62,16.66,8.709,8.709,0,0,1-3.5.74Z" fill="#fab334"/></g></g></svg>