<svg xmlns="http://www.w3.org/2000/svg" xmlns:xlink="http://www.w3.org/1999/xlink" width="210.768" height="44.011" viewBox="0 0 210.768 44.011"><defs><clipPath id="a"><rect width="210.768" height="44.011" fill="none"/></clipPath></defs><g transform="translate(0 124)"><g transform="translate(0 -124)" clip-path="url(#a)"><path d="M73.153,28.019A4.206,4.206,0,0,0,77.488,31.3c1.878,0,3.587-.68,3.587-2.456,0-.918-.51-1.776-2.762-2.558L75.72,25.4c-5.295-1.81-6.077-5.125-6.077-7.105,0-4.3,3.383-6.969,8.057-6.969a8.146,8.146,0,0,1,7.989,5.227l-4.3,2.15A3.783,3.783,0,0,0,77.7,16.01c-1.64,0-2.907.646-2.907,2.218,0,.612.17,1.742,2.558,2.558l2.524.884c5.363,1.674,6.315,4.879,6.349,7.071,0,5.023-4.369,7.241-8.567,7.241-4.573,0-8.737-2.592-9.222-7.037l4.709-.926Z" transform="translate(-10.271 -1.7)" fill="#2d559a"/><path d="M94.316,34.436V10.528h15.876v4.2H99.611V20.6H108.8v4.2H99.611v5.431h10.581v4.2H94.316ZM106.98,3.567l-4.641,5.261H98.651l2.975-5.261h5.354Z" transform="translate(-14.155 -0.535)" fill="#bb8526"/><path d="M117.455,19.211h5.091V21.6a6.229,6.229,0,0,1,5.431-2.762c4.921,0,6.247,3.927,6.247,8.363v9.528h-5.091V27.3c0-2.422-.884-4.267-3.247-4.267s-3.349,1.878-3.349,4.3v9.392h-5.091V19.211Z" transform="translate(-17.627 -2.827)" fill="#bb8526"/><path d="M155.787,26.784c.612,2.524,1.572,4.573,3.961,4.573a3.738,3.738,0,0,0,2.422-1.028l1.878,3.655a7.646,7.646,0,0,1-5.329,2.048c-5.669,0-7.411-6.349-7.683-8.882h-3.179v8.5H142.6V11.757h10.615c4.921,0,7.615,3.655,7.615,7.853a7.246,7.246,0,0,1-5.057,7.173Zm-3.247-3.859c1.878,0,3.009-1.368,3.009-3.349s-1.13-3.383-3.009-3.383h-4.675v6.723h4.675Z" transform="translate(-21.401 -1.764)" fill="#bb8526"/><path d="M187.921,35.5c0,6.9-4.5,9.6-9.494,9.6-3.893,0-6.519-.986-8.3-2.422l2.014-3.961a9.324,9.324,0,0,0,5.261,1.98c2.626,0,5.431-.782,5.431-4.607V34.17a6.284,6.284,0,0,1-5.5,2.941c-5.329,0-8.533-4.1-8.533-9.222s2.975-9.052,8.431-9.052a7.041,7.041,0,0,1,5.6,2.762V19.211h5.091V35.5ZM178.4,32.971a4.393,4.393,0,0,0,4.573-4.785c0-3.179-1.946-5.227-4.709-5.227s-4.369,2.252-4.369,4.955S175.605,32.971,178.4,32.971Z" transform="translate(-25.335 -2.827)" fill="#2d559a"/><path d="M199.049,10.4a3.014,3.014,0,0,1,3.247,2.9,3.257,3.257,0,0,1-6.459,0,2.979,2.979,0,0,1,3.213-2.9m-2.592,7.547h5.091V35.461h-5.091Z" transform="translate(-29.392 -1.56)" fill="#2d559a"/><path d="M224.693,33.65a11,11,0,0,1-8.159,3.451c-6.485,0-10.038-4.063-10.038-9.052a9.33,9.33,0,0,1,9.664-9.222c4.845,0,9.494,3.349,9.494,10.31h-14.1c.1,2.184,2.116,3.791,5.363,3.791a7.365,7.365,0,0,0,4.845-2.082l2.932,2.8Zm-13.046-7.581h8.78c-.34-2.252-2.626-3.111-4.335-3.111a4.286,4.286,0,0,0-4.437,3.111Z" transform="translate(-30.991 -2.825)" fill="#2d559a"/><path d="M234.6,30.546a3.558,3.558,0,0,0,3.689,2.626c1.13,0,2.286-.442,2.286-1.334,0-.578-.34-.986-1.3-1.334L236.2,29.2c-4.165-1.47-4.369-4.233-4.369-5.023,0-3.519,3.111-5.363,6.867-5.363a6.6,6.6,0,0,1,6.315,3.689l-3.927,1.81a2.444,2.444,0,0,0-2.49-1.674c-.96,0-1.946.544-1.946,1.436,0,.748.748,1.164,1.64,1.5l2.626,1.028c4.131,1.2,4.5,3.893,4.5,5.057,0,3.587-3.315,5.431-7.173,5.431-2.592,0-6.145-.816-7.343-4.471l3.689-2.082Z" transform="translate(-34.655 -2.824)" fill="#2d559a"/><path d="M43.92,20.039a21.992,21.992,0,1,0-.552,7.25c.153-.637.28-1.266.382-1.9a16.02,16.02,0,0,0,.178-5.354" transform="translate(0 0)" fill="#2d559a"/><path d="M46.825,4.305a18.9,18.9,0,0,0-5.269.816,22.057,22.057,0,0,1,8.6,15.553,16.019,16.019,0,0,1-.178,5.354c-.1.637-.221,1.266-.382,1.9a21.853,21.853,0,0,1-7.777,12.018,19.683,19.683,0,0,0,4.471.552c5.711,0,12.817-2.983,12.817-17.84S52.5,4.3,46.817,4.3" transform="translate(-6.237 -0.645)" fill="#2dad6e"/><path d="M37.138,5.267A19.827,19.827,0,0,0,34.35,6.3s-15.706,7.581-15.791,7.624c-3.816,1.649-6.442,5-6.442,8.865s2.558,7.139,6.3,8.805l16.429,7.709a17.8,17.8,0,0,0,2.567.79,21.929,21.929,0,0,0,7.777-12.018c.153-.637.28-1.266.382-1.9a16.02,16.02,0,0,0,.178-5.354,22.057,22.057,0,0,0-8.6-15.553" transform="translate(-1.818 -0.79)" fill="#009e99"/><path d="M18.572,23.082a6.451,6.451,0,1,1,4.579,7.891,6.451,6.451,0,0,1-4.579-7.891" transform="translate(-2.755 -2.744)" fill="#fff"/><path d="M25.436,22.477a2.89,2.89,0,1,1-2.89,2.89,2.889,2.889,0,0,1,2.89-2.89" transform="translate(-3.384 -3.373)" fill="#bb8526"/><path d="M31.137,16.258a13.19,13.19,0,0,0-7.224-2.091c-6.519,0-11.8,4.462-11.8,9.961s5.278,9.961,11.8,9.961A13.112,13.112,0,0,0,31.6,31.684a9.387,9.387,0,0,0,4.114-7.556,9.5,9.5,0,0,0-4.573-7.87M23.913,30.1a5.967,5.967,0,0,1,0-11.933,5.823,5.823,0,0,1,1.929.331,6.006,6.006,0,0,1,.416,11.125,5.785,5.785,0,0,1-2.337.493Z" transform="translate(-1.818 -2.126)" fill="#fab334"/></g></g></svg>