<?xml version="1.0" encoding="UTF-8"?>
<svg xmlns="http://www.w3.org/2000/svg" version="1.1" viewBox="0 0 234.7 49.1">
  <defs>
    <style>
      .cls-1 {
        fill: #fff;
      }
    </style>
  </defs>
  <!-- Generator: Adobe Illustrator 28.7.9, SVG Export Plug-In . SVG Version: 1.2.0 Build 218)  -->
  <g>
    <g id="Calque_1">
      <g>
        <path class="cls-1" d="M53.2,7.6c-3.7-2.3-8.1-1.8-11.2-.9h0c-2.3-1.7-5-3-7.8-3.7-5.7-1.4-11.7-.5-16.7,2.5-5.1,3.1-8.6,7.9-10,13.6-1.4,5.7-.5,11.7,2.5,16.7,3,5.1,7.9,8.6,13.6,10,1.8.4,3.6.7,5.4.7,4,0,7.9-1.1,11.4-3.2.7-.4,1.3-.9,2-1.4h0c1.4.3,2.9.5,4.2.5,2.6,0,4.9-.6,6.7-1.8,4.2-2.7,6.4-8.1,6.4-16.2s-2.2-14.3-6.4-16.9h0ZM39.6,42.3c-4.8,2.9-10.4,3.7-15.8,2.4-5.4-1.3-9.9-4.7-12.8-9.5-2.9-4.8-3.7-10.4-2.4-15.8,1.3-5.4,4.7-10,9.5-12.8,4.7-2.8,10.4-3.7,15.8-2.4,2.3.6,4.5,1.6,6.5,2.9-.9.3-1.5.6-1.6.6l-5.1,2.5c-4.5,2.2-10.2,4.9-10.3,5-4.1,1.8-6.7,5.3-6.7,9.2h0v.2c0,.2,0,.5,0,.7,0,.2,0,.3,0,.5,0,0,0,.1,0,.2.6,3.6,3.5,6.6,7.3,8l15.1,7.1c0,0,.6.2,1.3.5-.3.2-.7.5-1,.7h0ZM29,15.5c2.4,0,4.8.7,6.7,1.9,2.7,1.7,4.2,4.3,4.2,7.1s-1.4,5.1-3.8,6.8c-2,1.4-4.5,2.2-7.1,2.2s-2.9-.3-4.2-.7l-.8-.4h0c-3.1-1.4-5.2-3.9-5.7-6.8,0,0,0,0,0,0,0-.2,0-.3,0-.5,0-.2,0-.4,0-.6v-.2c0-5,4.9-9,10.9-9h0ZM42,40.7c-1.3-.3-2.1-.7-2.1-.7l-10.9-5.1c2.9,0,5.6-.9,7.8-2.5,2.7-2,4.3-4.8,4.3-7.9s-1.7-6.2-4.7-8.2c-2.1-1.4-4.7-2.1-7.4-2.1s-.2,0-.4,0c4.5-2.2,10.8-5.2,10.8-5.2,0,0,.9-.4,2.3-.9,4.5,3.5,7.4,8.8,7.9,14.5h0c.2,1.7.2,3.4-.2,5.1-.1.6-.2,1.2-.4,1.8-1.1,4.5-3.6,8.3-7.1,11.2h0ZM52.7,39.6c-3,2-6.5,1.9-9.2,1.5,3.4-3,5.7-6.8,6.8-11.2.2-.6.3-1.2.4-1.9.4-1.8.4-3.6.2-5.4-.5-5.7-3.3-11.1-7.7-14.8,2.7-.6,6.3-.9,9.3,1,3.9,2.4,5.8,7.7,5.8,15.8s-1.9,12.6-5.6,15h0Z"/>
        <path class="cls-1" d="M28.9,31.2c3.6,0,6.6-3,6.6-6.6s-3-6.6-6.6-6.6-6.6,3-6.6,6.6,3,6.6,6.6,6.6ZM28.9,21.7c1.6,0,2.8,1.3,2.8,2.8s-1.3,2.8-2.8,2.8-2.8-1.3-2.8-2.8,1.3-2.8,2.8-2.8Z"/>
      </g>
      <g>
        <path class="cls-1" d="M74.8,28.1c.6,2.1,2.1,3.2,4.3,3.2s3.6-.7,3.6-2.4-.5-1.8-2.7-2.5l-2.6-.9c-5.2-1.8-6-5.1-6-7,0-4.3,3.3-6.9,8-6.9s6.5,1.8,7.9,5.2l-4.3,2.1c-1-2.4-2.7-2.7-3.7-2.7-1.6,0-2.9.6-2.9,2.2s.2,1.7,2.5,2.5l2.5.9c5.3,1.7,6.3,4.8,6.3,7,0,5-4.3,7.2-8.5,7.2s-8.7-2.6-9.1-7l4.7-.9h0Z"/>
        <path class="cls-1" d="M91.9,35.6V12h15.7v4.2h-10.5v5.8h9.1v4.2h-9.1v5.4h10.5v4.2h-15.7ZM104.5,5.1l-4.6,5.2h-3.7l2.9-5.2h5.3,0Z"/>
        <path class="cls-1" d="M111.4,18.3h5v2.4c1.5-2,3.3-2.7,5.4-2.7,4.9,0,6.2,3.9,6.2,8.3v9.4h-5v-9.3c0-2.4-.9-4.2-3.2-4.2s-3.3,1.9-3.3,4.3v9.3h-5v-17.3h0Z"/>
        <path class="cls-1" d="M145.6,26.9c.6,2.5,1.6,4.5,3.9,4.5s1.8-.4,2.4-1l1.9,3.6c-1.6,1.2-2.8,2-5.3,2-5.6,0-7.3-6.3-7.6-8.8h-3.1v8.4h-5.2V12h10.5c4.9,0,7.5,3.6,7.5,7.8s-1.9,6.1-5,7.1h0ZM142.4,23c1.9,0,3-1.4,3-3.3s-1.1-3.3-3-3.3h-4.6v6.7h4.6Z"/>
        <path class="cls-1" d="M173.5,34.4c0,6.8-4.5,9.5-9.4,9.5s-6.5-1-8.2-2.4l2-3.9c1,.9,3.3,2,5.2,2s5.4-.8,5.4-4.6v-1.9c-1.3,1.8-2.9,2.9-5.4,2.9-5.3,0-8.4-4.1-8.4-9.1s2.9-9,8.3-9,4.4,1.2,5.5,2.7v-2.4h5v16.1h0ZM164.1,31.9c2.5,0,4.5-1.6,4.5-4.7s-1.9-5.2-4.7-5.2-4.3,2.2-4.3,4.9,1.7,5,4.5,5h0Z"/>
        <path class="cls-1" d="M180.5,10.8c1.8,0,3.2,1.2,3.2,2.9s-1.4,2.8-3.2,2.8-3.2-1.2-3.2-2.8,1.4-2.9,3.2-2.9ZM178,35.6v-17.3h5v17.3h-5Z"/>
        <path class="cls-1" d="M204.3,32.6c-2.5,2.7-5.7,3.4-8.1,3.4-6.4,0-9.9-4-9.9-9s4-9.1,9.6-9.1,9.4,3.3,9.4,10.2h-14c.1,2.2,2.1,3.8,5.3,3.8s3.6-.9,4.8-2.1l2.9,2.8h0ZM191.4,25.1h8.7c-.3-2.2-2.6-3.1-4.3-3.1s-3.8.7-4.4,3.1h0Z"/>
        <path class="cls-1" d="M210.5,29.5c.5,2,2.3,2.6,3.7,2.6s2.3-.4,2.3-1.3-.3-1-1.3-1.3l-3-1.3c-4.1-1.5-4.3-4.2-4.3-5,0-3.5,3.1-5.3,6.8-5.3s4.6.5,6.3,3.7l-3.9,1.8c-.4-1.4-1.7-1.7-2.5-1.7s-1.9.5-1.9,1.4.7,1.2,1.6,1.5l2.6,1c4.1,1.2,4.5,3.9,4.5,5,0,3.6-3.3,5.4-7.1,5.4s-6.1-.8-7.3-4.4l3.7-2.1h0Z"/>
      </g>
    </g>
  </g>
</svg>