<?xml version="1.0" encoding="UTF-8"?>
<svg xmlns="http://www.w3.org/2000/svg" version="1.1" viewBox="0 0 297.7 94.3">
  <defs>
    <style>
      .cls-1 {
        fill: #59ab75;
      }

      .cls-2 {
        fill: #375596;
      }

      .cls-3 {
        fill: #fff;
      }

      .cls-4 {
        fill: #efb651;
      }

      .cls-5 {
        fill: #b3873b;
      }

      .cls-6 {
        fill: #469c99;
      }
    </style>
  </defs>
  <!-- Generator: Adobe Illustrator 28.7.9, SVG Export Plug-In . SVG Version: 1.2.0 Build 218)  -->
  <g>
    <g id="Calque_2">
      <g>
        <path class="cls-5" d="M88.3,72.2v1.1h-4.8v-7.6h1.4v6.5h3.4Z"/>
        <path class="cls-5" d="M91.6,67.7c1.6,0,3,1.3,3,2.9s-1.4,2.9-3,2.9-3-1.3-3-2.9,1.4-2.9,3-2.9ZM91.6,72.3c.9,0,1.6-.8,1.6-1.7s-.7-1.7-1.6-1.7-1.6.8-1.6,1.7.7,1.7,1.6,1.7Z"/>
        <path class="cls-5" d="M98.4,67.7c.5,0,1.3.1,2.1.7l-.6,1c-.6-.5-1.2-.5-1.4-.5-1.1,0-1.8.7-1.8,1.7s.7,1.7,1.8,1.7.9,0,1.4-.5l.6.9c-.8.6-1.6.7-2.1.7-1.9,0-3.1-1.2-3.1-2.8s1.1-2.9,3.1-2.9h0Z"/>
        <path class="cls-5" d="M106.9,67.9v5.5h-1.3v-.8c-.4.6-1.1.9-1.9.9-1.6,0-2.7-1.3-2.7-2.9s1-2.8,2.7-2.8,1.4.3,1.9.9v-.8h1.3,0ZM104,72.3c.9,0,1.6-.6,1.6-1.7s-.7-1.8-1.7-1.8-1.6.8-1.6,1.7.6,1.8,1.6,1.8h0Z"/>
        <path class="cls-5" d="M108.4,73.3v-7.8h1.3v7.8h-1.3Z"/>
        <path class="cls-5" d="M116.5,72.4c-.7.8-1.6,1-2.5,1-2,0-3.1-1.3-3.1-2.8s1.3-2.9,3-2.9,2.9.9,2.9,3h-4.5c0,.9.7,1.5,1.9,1.5s1.2-.2,1.7-.7l.8.7h0ZM112.3,69.9h3.1c-.2-.8-1-1.1-1.5-1.1s-1.3.2-1.6,1.1Z"/>
        <path class="cls-5" d="M118.4,71.6c.1.5.7.8,1.2.8s.8-.1.8-.6-.3-.4-.6-.6l-.8-.3c-1.1-.4-1.4-1-1.4-1.5,0-1,.9-1.7,2-1.7s1.5.2,1.9,1.2l-1.1.4c-.1-.4-.5-.6-.8-.6s-.7.2-.7.6.3.4.6.6l.8.3c1.2.4,1.4,1.1,1.4,1.6,0,1.1-1,1.7-2.1,1.7s-1.9-.4-2.2-1.4l1-.4h0Z"/>
        <path class="cls-5" d="M130.1,72.5c-.5.6-1.3.9-2.2.9-1.5,0-2.7-.8-2.7-2.1s1-1.9,1.9-2.3c-.4-.4-.8-1-.8-1.6,0-1.3,1.1-1.8,2-1.8s2,.8,2,1.7-.7,1.5-1.5,1.9l1.2,1.3.9-1.3h1.2v.2l-1.4,1.9.4.5c.2.2.5.3.7.3.2,0,.6,0,.9-.4l.4.9c-.3.4-.8.6-1.4.6s-1.1-.3-1.6-.7l-.2-.2h0ZM127.8,69.9c-.6.2-1.3.7-1.3,1.4s.6,1.1,1.4,1.1,1.1-.3,1.4-.7l-1.5-1.8h0ZM128.2,68.5c.6-.3.9-.8.9-1.1s-.3-.7-.8-.7-.8.3-.8.8.2.7.6,1.1Z"/>
        <path class="cls-5" d="M138.2,69.1c.2-.9.9-1.3,1.5-1.3s.3,0,.4,0v1.3c-.2,0-.4-.1-.6-.1-.5,0-1.3.3-1.3,1.8v2.5h-1.3v-5.5h1.3v1.2h0Z"/>
        <path class="cls-5" d="M146.1,72.4c-.7.8-1.6,1-2.5,1-2,0-3.1-1.3-3.1-2.8s1.3-2.9,3-2.9,2.9.9,2.9,3h-4.5c0,.9.7,1.5,1.9,1.5s1.2-.2,1.7-.7l.8.7h0ZM141.9,69.9h3.1c-.2-.8-1-1.1-1.5-1.1s-1.3.2-1.6,1.1Z"/>
        <path class="cls-5" d="M148,71.6c.1.5.7.8,1.2.8s.8-.1.8-.6-.3-.4-.6-.6l-.8-.3c-1.1-.4-1.4-1-1.4-1.5,0-1,.9-1.7,2-1.7s1.5.2,1.9,1.2l-1.1.4c-.1-.4-.5-.6-.8-.6s-.7.2-.7.6.3.4.6.6l.8.3c1.2.4,1.4,1.1,1.4,1.6,0,1.1-1,1.7-2.1,1.7s-1.9-.4-2.2-1.4l1-.4h0Z"/>
        <path class="cls-5" d="M152.4,75.8v-7.9h1.3v.8c.4-.6,1.1-.9,1.9-.9,1.6,0,2.7,1.3,2.7,2.9s-1,2.8-2.7,2.8-1.4-.3-1.9-.9v3.3h-1.3ZM155.3,68.8c-.9,0-1.6.6-1.6,1.7s.7,1.8,1.7,1.8,1.6-.8,1.6-1.7-.6-1.8-1.6-1.8Z"/>
        <path class="cls-5" d="M162,67.7c1.6,0,3,1.3,3,2.9s-1.4,2.9-3,2.9-3-1.3-3-2.9,1.4-2.9,3-2.9ZM162,72.3c.9,0,1.6-.8,1.6-1.7s-.7-1.7-1.6-1.7-1.6.8-1.6,1.7.7,1.7,1.6,1.7Z"/>
        <path class="cls-5" d="M166.1,67.9h1.3v.9c.3-.7,1-1,1.8-1,1.4,0,2,1,2,2.6v3h-1.3v-3c0-1-.4-1.4-1.1-1.4s-1.4.6-1.4,1.7v2.7h-1.3v-5.5h0Z"/>
        <path class="cls-5" d="M173.2,71.6c.1.5.7.8,1.2.8s.8-.1.8-.6-.3-.4-.6-.6l-.8-.3c-1.1-.4-1.4-1-1.4-1.5,0-1,.9-1.7,2-1.7s1.5.2,1.9,1.2l-1.1.4c-.1-.4-.5-.6-.8-.6s-.7.2-.7.6.3.4.6.6l.8.3c1.2.4,1.4,1.1,1.4,1.6,0,1.1-1,1.7-2.1,1.7s-1.9-.4-2.2-1.4l1-.4h0Z"/>
        <path class="cls-5" d="M183.2,67.9v5.5h-1.3v-.8c-.4.6-1.1.9-1.9.9-1.6,0-2.7-1.3-2.7-2.9s1-2.8,2.7-2.8,1.4.3,1.9.9v-.8h1.3ZM180.2,72.3c.9,0,1.6-.6,1.6-1.7s-.7-1.8-1.7-1.8-1.6.8-1.6,1.7.6,1.8,1.6,1.8h0Z"/>
        <path class="cls-5" d="M187.9,73.4c-.8,0-1.5-.3-1.9-.9v.8h-1.3v-7.8h1.3v3.2c.4-.6,1.1-.9,1.9-.9,1.7,0,2.7,1.3,2.7,2.8s-1.1,2.9-2.7,2.9ZM187.6,68.8c-1,0-1.7.7-1.7,1.8s.7,1.7,1.6,1.7,1.6-.8,1.6-1.8-.6-1.7-1.6-1.7h0Z"/>
        <path class="cls-5" d="M191.7,73.3v-7.8h1.3v7.8h-1.3Z"/>
        <path class="cls-5" d="M199.8,72.4c-.7.8-1.6,1-2.5,1-2,0-3.1-1.3-3.1-2.8s1.3-2.9,3-2.9,2.9.9,2.9,3h-4.5c0,.9.7,1.5,1.9,1.5s1.2-.2,1.7-.7l.8.7h0ZM195.6,69.9h3.1c-.2-.8-1-1.1-1.5-1.1s-1.3.2-1.6,1.1Z"/>
        <path class="cls-5" d="M201.7,71.6c.1.5.7.8,1.2.8s.8-.1.8-.6-.3-.4-.6-.6l-.8-.3c-1.1-.4-1.4-1-1.4-1.5,0-1,.9-1.7,2-1.7s1.6.2,1.9,1.2l-1.1.4c-.1-.4-.5-.6-.8-.6s-.7.2-.7.6.3.4.6.6l.8.3c1.2.4,1.4,1.1,1.4,1.6,0,1.1-1,1.7-2.1,1.7s-1.9-.4-2.2-1.4l1-.4h0Z"/>
        <path class="cls-2" d="M88.5,83.3c-.7.8-1.6,1-2.5,1-2,0-3.1-1.3-3.1-2.8s1.3-2.9,3-2.9,2.9.9,2.9,3h-4.5c0,.9.7,1.5,1.9,1.5s1.2-.2,1.7-.7l.8.7h0ZM84.2,80.8h3.1c-.2-.8-1-1.1-1.5-1.1s-1.3.2-1.6,1.1Z"/>
        <path class="cls-2" d="M89.7,78.8h1.3v.9c.3-.7,1-1,1.8-1,1.4,0,2,1,2,2.6v3h-1.3v-3c0-1-.4-1.4-1.1-1.4s-1.4.6-1.4,1.7v2.7h-1.3v-5.5h0Z"/>
        <path class="cls-2" d="M99,86.7v-7.9h1.3v.8c.4-.6,1.1-.9,1.9-.9,1.6,0,2.7,1.3,2.7,2.9s-1,2.8-2.7,2.8-1.4-.3-1.9-.9v3.3h-1.3,0ZM102,79.8c-.9,0-1.6.6-1.6,1.7s.7,1.8,1.7,1.8,1.6-.8,1.6-1.7-.6-1.8-1.6-1.8Z"/>
        <path class="cls-2" d="M111.6,78.8v5.5h-1.3v-.8c-.4.6-1.1.9-1.9.9-1.6,0-2.7-1.3-2.7-2.9s1-2.8,2.7-2.8,1.4.3,1.9.9v-.8h1.3,0ZM108.7,83.3c.9,0,1.6-.6,1.6-1.7s-.7-1.8-1.7-1.8-1.6.8-1.6,1.7.6,1.8,1.6,1.8h0Z"/>
        <path class="cls-2" d="M116.9,78.8h1.5l-3.4,7.9h-1.3l1.1-2.8-2.3-5.1h1.5l1.5,3.7,1.4-3.7h0Z"/>
        <path class="cls-2" d="M119.7,82.5c.1.5.7.8,1.2.8s.8-.1.8-.6-.3-.4-.6-.6l-.8-.3c-1.1-.4-1.4-1-1.4-1.5,0-1,.9-1.7,2-1.7s1.5.2,1.9,1.2l-1.1.4c-.1-.4-.5-.6-.8-.6s-.7.2-.7.6.3.4.6.6l.8.3c1.2.4,1.4,1.1,1.4,1.6,0,1.1-1,1.7-2.1,1.7s-1.9-.4-2.2-1.4l1-.4h0Z"/>
        <path class="cls-2" d="M129.6,78.8v5.5h-1.3v-.8c-.4.6-1.1.9-1.9.9-1.6,0-2.7-1.3-2.7-2.9s1-2.8,2.7-2.8,1.4.3,1.9.9v-.8h1.3ZM126.7,83.3c.9,0,1.6-.6,1.6-1.7s-.7-1.8-1.7-1.8-1.6.8-1.6,1.7.6,1.8,1.6,1.8h0Z"/>
        <path class="cls-2" d="M131.8,85c.4.4,1.1.7,1.8.7.9,0,1.7-.4,1.7-1.6v-.6c-.4.6-1.1.9-1.9.9-1.6,0-2.7-1.3-2.7-2.9s1-2.8,2.7-2.8,1.4.3,1.9.9v-.8h1.3v4.9c0,2.3-1.2,3.2-2.9,3.2s-1.9-.3-2.5-.8c.2-.3.4-.7.5-1h0ZM133.7,83.3c.9,0,1.6-.6,1.6-1.7s-.7-1.8-1.7-1.8-1.6.8-1.6,1.7.6,1.8,1.6,1.8h0Z"/>
        <path class="cls-2" d="M143.3,83.3c-.7.8-1.6,1-2.5,1-2,0-3.1-1.3-3.1-2.8s1.3-2.9,3-2.9,2.9.9,2.9,3h-4.5c0,.9.7,1.5,1.9,1.5s1.2-.2,1.7-.7l.8.7h0ZM139.1,80.8h3.1c-.2-.8-1-1.1-1.5-1.1s-1.3.2-1.6,1.1Z"/>
        <path class="cls-2" d="M145.2,82.5c.1.5.7.8,1.2.8s.8-.1.8-.6-.3-.4-.6-.6l-.8-.3c-1.1-.4-1.4-1-1.4-1.5,0-1,.9-1.7,2-1.7s1.5.2,1.9,1.2l-1.1.4c-.1-.4-.5-.6-.8-.6s-.7.2-.7.6.3.4.6.6l.8.3c1.2.4,1.4,1.1,1.4,1.6,0,1.1-1,1.7-2.1,1.7s-1.9-.4-2.2-1.4l1-.4h0Z"/>
        <path class="cls-2" d="M153.7,80c.2-.9.9-1.3,1.5-1.3s.3,0,.4,0v1.3c-.2,0-.4-.1-.6-.1-.5,0-1.3.3-1.3,1.8v2.5h-1.3v-5.5h1.3v1.2h0Z"/>
        <path class="cls-2" d="M159,78.7c1.6,0,3,1.3,3,2.9s-1.4,2.9-3,2.9-3-1.3-3-2.9,1.4-2.9,3-2.9ZM159,83.3c.9,0,1.6-.8,1.6-1.7s-.7-1.7-1.6-1.7-1.6.8-1.6,1.7.7,1.7,1.6,1.7Z"/>
        <path class="cls-2" d="M165.8,78.7c.5,0,1.3.1,2.1.7l-.6,1c-.6-.5-1.2-.5-1.4-.5-1.1,0-1.8.7-1.8,1.7s.7,1.7,1.8,1.7.9,0,1.4-.5l.6.9c-.8.6-1.6.7-2.1.7-1.9,0-3.1-1.2-3.1-2.8s1.1-2.9,3.1-2.9h0Z"/>
        <path class="cls-2" d="M168.9,76.5h1.3v3.3c.3-.7,1-1,1.8-1,1.4,0,2,1,2,2.6v3h-1.3v-3c0-1-.4-1.4-1.1-1.4s-1.4.5-1.4,1.7v2.7h-1.3v-7.8h0Z"/>
        <path class="cls-2" d="M180.7,83.3c-.7.8-1.6,1-2.5,1-2,0-3.1-1.3-3.1-2.8s1.3-2.9,3-2.9,2.9.9,2.9,3h-4.5c0,.9.7,1.5,1.9,1.5s1.2-.2,1.7-.7l.8.7h0ZM176.4,80.8h3.1c-.2-.8-1-1.1-1.5-1.1s-1.3.2-1.6,1.1Z"/>
        <path class="cls-2" d="M182,84.3v-7.8h1.3v7.8h-1.3Z"/>
        <path class="cls-2" d="M190.3,78.8v5.5h-1.3v-.8c-.4.6-1.1.9-1.9.9-1.6,0-2.7-1.3-2.7-2.9s1-2.8,2.7-2.8,1.4.3,1.9.9v-.8h1.3ZM187.4,83.3c.9,0,1.6-.6,1.6-1.7s-.7-1.8-1.7-1.8-1.6.8-1.6,1.7.6,1.8,1.6,1.8Z"/>
        <path class="cls-2" d="M192.5,76.3c.5,0,.9.4.9.8s-.4.8-.9.8-.9-.4-.9-.8.4-.8.9-.8ZM191.9,84.3v-5.5h1.3v5.5h-1.3Z"/>
        <path class="cls-2" d="M195.3,82.5c.1.5.7.8,1.2.8s.8-.1.8-.6-.3-.4-.6-.6l-.8-.3c-1.1-.4-1.4-1-1.4-1.5,0-1,.9-1.7,2-1.7s1.6.2,1.9,1.2l-1.1.4c-.1-.4-.5-.6-.8-.6s-.7.2-.7.6.3.4.6.6l.8.3c1.2.4,1.4,1.1,1.4,1.6,0,1.1-1,1.7-2.1,1.7s-1.9-.4-2.2-1.4l1-.4h0Z"/>
      </g>
      <g>
        <path class="cls-2" d="M63.4,52.4c-1.1-12.4-9.9-23.3-22.7-26.5-16.1-4-32.4,5.8-36.4,22-4,16.1,5.8,32.4,22,36.4s32.4-5.8,36.4-22c.2-.9.4-1.7.5-2.6.5-2.5.6-4.9.2-7.3"/>
        <path class="cls-1" d="M58.8,30.1c-2.7,0-5.2.5-7.2,1.1,6.7,5.1,11,12.8,11.8,21.3.3,2.4.3,4.9-.2,7.3-.1.9-.3,1.7-.5,2.6-1.7,6.8-5.5,12.4-10.6,16.4,1.7.4,3.8.7,6.1.7,7.8,0,17.5-4.1,17.5-24.4s-9-25.1-16.8-25.1"/>
        <path class="cls-6" d="M51.6,31.2c-2.3.7-3.8,1.4-3.8,1.4,0,0-21.5,10.4-21.6,10.4-5.2,2.3-8.8,6.8-8.8,12.1s3.5,9.7,8.6,12h0l22.4,10.5s1.4.6,3.5,1.1c5.1-4,8.9-9.7,10.6-16.4.2-.9.4-1.7.5-2.6.5-2.5.6-4.9.2-7.3-.8-8.4-5.1-16.2-11.8-21.3"/>
        <circle class="cls-3" cx="33.5" cy="55.1" r="8.8"/>
        <circle class="cls-5" cx="33.5" cy="55.1" r="3.9"/>
        <path class="cls-4" d="M43.4,44.4c-2.7-1.8-6.2-2.9-9.9-2.9-8.9,0-16.1,6.1-16.1,13.6s7.2,13.6,16.1,13.6,7.7-1.2,10.5-3.3c3.4-2.5,5.6-6.2,5.6-10.3s-2.4-8.3-6.2-10.8ZM33.5,63.3c-4.4,0-8-3.6-8-8.2s3.6-8.2,8-8.2,1.8.2,2.6.4c3.1,1.1,5.4,4.1,5.4,7.7s-2,6.2-4.8,7.5c-1,.4-2.1.7-3.2.7h0Z"/>
      </g>
      <g>
        <path class="cls-2" d="M88.4,44.6c.8,2.9,2.9,4.4,5.9,4.4s4.9-.9,4.9-3.3-.7-2.4-3.7-3.5l-3.5-1.2c-7.2-2.4-8.2-6.9-8.2-9.6,0-5.8,4.6-9.4,10.9-9.4s8.9,2.4,10.8,7.1l-5.8,2.9c-1.4-3.3-3.7-3.7-5-3.7-2.2,0-3.9.9-3.9,3s.2,2.4,3.5,3.5l3.4,1.2c7.3,2.3,8.5,6.6,8.6,9.6,0,6.8-5.9,9.8-11.6,9.8s-11.8-3.5-12.5-9.5l6.4-1.2h0Z"/>
        <path class="cls-5" d="M111.8,54.8V22.5h21.5v5.7h-14.3v7.9h12.4v5.7h-12.4v7.3h14.3v5.7h-21.5,0ZM128.9,13l-6.3,7.1h-5l4-7.1h7.3Z"/>
        <path class="cls-5" d="M138.4,31.1h6.9v3.2c2-2.8,4.5-3.7,7.3-3.7,6.7,0,8.4,5.3,8.4,11.3v12.9h-6.9v-12.8c0-3.3-1.2-5.8-4.4-5.8s-4.5,2.5-4.5,5.8v12.7h-6.9v-23.7h0Z"/>
        <path class="cls-5" d="M185.2,42.8c.8,3.4,2.1,6.2,5.4,6.2s2.4-.6,3.3-1.4l2.5,4.9c-2.1,1.7-3.9,2.8-7.2,2.8-7.7,0-10-8.6-10.4-12h-4.3v11.5h-7.1V22.5h14.4c6.7,0,10.3,4.9,10.3,10.6s-2.6,8.4-6.8,9.7h0ZM180.8,37.6c2.5,0,4.1-1.9,4.1-4.5s-1.5-4.6-4.1-4.6h-6.3v9.1h6.3Z"/>
        <path class="cls-2" d="M223.3,53.1c0,9.3-6.1,13-12.8,13s-8.8-1.3-11.2-3.3l2.7-5.4c1.4,1.2,4.5,2.7,7.1,2.7s7.3-1.1,7.3-6.2v-2.6c-1.7,2.4-4,4-7.4,4-7.2,0-11.5-5.5-11.5-12.5s4-12.2,11.4-12.2,6,1.6,7.6,3.7v-3.2h6.9v22h0ZM210.4,49.7c3.4,0,6.2-2.2,6.2-6.5s-2.6-7.1-6.4-7.1-5.9,3-5.9,6.7,2.3,6.8,6.1,6.8h0Z"/>
        <path class="cls-2" d="M232.9,20.9c2.4,0,4.4,1.6,4.4,3.9s-1.9,3.8-4.4,3.8-4.3-1.6-4.3-3.8,1.9-3.9,4.3-3.9ZM229.4,54.8v-23.7h6.9v23.7h-6.9Z"/>
        <path class="cls-2" d="M265.4,50.7c-3.4,3.7-7.9,4.7-11,4.7-8.8,0-13.6-5.5-13.6-12.2s5.4-12.5,13.1-12.5,12.8,4.5,12.8,14h-19.1c.1,3,2.9,5.1,7.3,5.1s4.9-1.2,6.6-2.8l4,3.8h0ZM247.8,40.4h11.9c-.5-3-3.6-4.2-5.9-4.2s-5.2,1-6,4.2Z"/>
        <path class="cls-2" d="M273.9,46.5c.7,2.7,3.1,3.6,5,3.6s3.1-.6,3.1-1.8-.5-1.3-1.8-1.8l-4.2-1.8c-5.6-2-5.9-5.7-5.9-6.8,0-4.8,4.2-7.3,9.3-7.3s6.3.7,8.5,5l-5.3,2.4c-.6-1.9-2.3-2.3-3.4-2.3s-2.6.7-2.6,1.9,1,1.6,2.2,2l3.6,1.4c5.6,1.6,6.1,5.3,6.1,6.8,0,4.9-4.5,7.3-9.7,7.3s-8.3-1.1-9.9-6.1l5-2.8h0Z"/>
      </g>
    </g>
  </g>
</svg>