<svg xmlns="http://www.w3.org/2000/svg" width="452.999" height="211.196" viewBox="0 0 452.999 211.196"><path d="M453,0,0,211.2H453Z" transform="translate(0)" fill="#2a559a"/><path d="M6186.229-1625.89c0-4.145,2.4-6.847,6.13-6.847,3.817,0,5.8,2.541,5.894,7.547h-7.76c0,1.724.7,2.753,1.818,2.753a1.554,1.554,0,0,0,1.282-.608,6.129,6.129,0,0,0,.747-1.257l3.775,1.233a5.783,5.783,0,0,1-5.9,3.959C6188.491-1619.11,6186.229-1621.673,6186.229-1625.89Zm4.336-1.442h3.61c-.025-1.491-.653-2.33-1.747-2.33S6190.63-1628.8,6190.565-1627.332Zm-29.711,1.442c0-4.145,2.4-6.847,6.131-6.847,3.818,0,5.8,2.541,5.892,7.547h-7.757c0,1.724.7,2.753,1.816,2.753a1.549,1.549,0,0,0,1.282-.608,6.351,6.351,0,0,0,.748-1.257l3.772,1.233a5.779,5.779,0,0,1-5.9,3.959C6163.117-1619.11,6160.854-1621.673,6160.854-1625.89Zm4.336-1.442h3.612c-.028-1.491-.655-2.33-1.75-2.33S6165.258-1628.8,6165.19-1627.332Zm-30.358,1.585c0-4.238,2.5-6.989,6.291-6.989,2.957,0,4.913,1.678,5.452,4.753l-3.892.723c-.072-1.494-.652-2.351-1.606-2.351-1.191,0-1.772,1.254-1.772,3.722,0,2.379.534,3.494,1.725,3.494a1.712,1.712,0,0,0,.721-.207,1.293,1.293,0,0,0,.534-.541c.047-.086.14-.344.3-.721.045-.135.12-.327.258-.652l3.775,1.263a5.516,5.516,0,0,1-5.687,4.142C6137.16-1619.11,6134.832-1621.673,6134.832-1625.747Zm-13.562-.19c0-4.167,2.377-6.824,6.1-6.824,3.845,0,6.34,2.681,6.34,6.824,0,4.175-2.5,6.827-6.34,6.827C6123.646-1619.11,6121.27-1621.737,6121.27-1625.937Zm4.427,0c0,2.5.512,3.543,1.655,3.543,1.163,0,1.676-1.048,1.676-3.543s-.514-3.515-1.676-3.515C6126.209-1629.452,6125.7-1628.426,6125.7-1625.937Zm-39.608,3.08c0-2.074,1.348-3.331,4.263-4.077l1.306-.325a18.45,18.45,0,0,0,2.14-.652l-.025-.468a1.177,1.177,0,0,0-1.325-1.189,1.941,1.941,0,0,0-1.889,1.442l-3.775-1.161c1.141-2.376,2.96-3.449,5.85-3.449,3.565,0,5.454,1.562,5.454,4.541v6.874a10.044,10.044,0,0,0,.091,1.865h-3.984l-.209-1.329a6.139,6.139,0,0,1-.79.7,5.656,5.656,0,0,1-3.1.957A3.711,3.711,0,0,1,6086.089-1622.858Zm5.986-1.658c-1.331.47-1.723.839-1.723,1.56,0,.63.417,1,1.139,1a2.4,2.4,0,0,0,1.634-.674,2.15,2.15,0,0,0,.672-1.446v-1.208A8.121,8.121,0,0,1,6092.075-1624.515Zm120.107,5.13,48.384-48.377v48.377Zm-137.954-.072v-16.8h4.684v13.1h7.039v3.7Zm106.178,0v-18.122h4.382v18.122Zm-6.153,0v-18.122h4.384v18.122Zm-19.245,0v-8.921a1.184,1.184,0,0,0-1.191-1.12,1.916,1.916,0,0,0-1.649,1.215v8.827h-4.358v-18.122h4.4v6.456a5.432,5.432,0,0,1,3.756-1.612,3.3,3.3,0,0,1,2.888,1.372c.419.63.533,1.237.533,2.825v9.082Zm-39.073,0-2.771-6.31h-1.678v6.31h-4.71v-16.794h6.923c2.285,0,3.309.233,4.333.954a4.685,4.685,0,0,1,1.936,4.008,4.606,4.606,0,0,1-2.655,4.451l3.774,7.381Zm-4.45-10.016h1.653c1.488,0,2.1-.464,2.1-1.56a1.443,1.443,0,0,0-1.166-1.535,6.291,6.291,0,0,0-.859-.046h-1.724Zm96.861,6.813v-2.7h6.567l-2.734,2.7Zm0-5.293v-2.7h11.839l-2.71,2.7Zm0-5.292v-2.7h17.165l-2.745,2.7Zm0-5.295v-2.695h22.439l-2.7,2.695Zm-107.7-2.535c-.477,1.008-1.895,1.646-3.822,1.646-2.305,0-3.85-.729-3.85-1.793,0-.641.45-1.139,1.263-1.356a1.243,1.243,0,0,1-.738-1.12c0-.611.482-1.053,1.408-1.328a2.507,2.507,0,0,1-1.483-2.339c0-1.694,1.439-2.929,3.442-2.929a3.565,3.565,0,0,1,1.945.482,1.888,1.888,0,0,1,1.74-.782h.2v1.579a1.341,1.341,0,0,0-.413-.057,1.263,1.263,0,0,0-.6.129,2.374,2.374,0,0,1,.515,1.533c0,1.678-1.408,2.858-3.4,2.858a4.045,4.045,0,0,1-.957-.1c-.154.115-.2.17-.2.258,0,.286.4.413,1.394.438l.751.027c.314.017.66.033.9.061a2.065,2.065,0,0,1,2.079,2,1.772,1.772,0,0,1,1.081-.706,1.25,1.25,0,0,1-.74-1.12c0-.611.482-1.053,1.411-1.328a2.5,2.5,0,0,1-1.48-2.339c0-1.694,1.436-2.929,3.441-2.929a3.606,3.606,0,0,1,1.948.482,1.876,1.876,0,0,1,1.734-.782h.2v1.579a1.342,1.342,0,0,0-.415-.057,1.242,1.242,0,0,0-.6.129,2.4,2.4,0,0,1,.511,1.533c0,1.678-1.408,2.858-3.4,2.858a4.027,4.027,0,0,1-.954-.1c-.156.115-.2.17-.2.258,0,.286.4.413,1.392.438l.756.027c.311.017.653.033.894.061a2.062,2.062,0,0,1,2.075,2c0,1.452-1.605,2.434-4,2.434C6102.292-1639.432,6100.783-1640.094,6100.646-1641.078Zm1.94-.6c0,.281.171.413.713.5a8.517,8.517,0,0,0,1.4.122,2.773,2.773,0,0,0,.484-.027l.542-.053c.322-.042.5-.129.5-.3,0-.267-.242-.382-.88-.4a9.721,9.721,0,0,1-2.019-.157,2.7,2.7,0,0,1-.543-.168A.718.718,0,0,0,6102.586-1641.682Zm-7.669,0c0,.281.172.413.713.5a8.588,8.588,0,0,0,1.408.122,2.793,2.793,0,0,0,.485-.027l.539-.053c.33-.042.5-.129.5-.3,0-.267-.247-.382-.888-.4a9.719,9.719,0,0,1-2.017-.157,2.658,2.658,0,0,1-.538-.168A.7.7,0,0,0,6094.917-1641.682Zm8.663-5.73v.088a.907.907,0,0,0,.924.922c.568,0,.927-.4.927-1.053a.94.94,0,0,0-.911-1.04C6103.948-1648.495,6103.581-1648.082,6103.581-1647.412Zm-7.667,0v.088a.908.908,0,0,0,.927.922c.567,0,.925-.4.925-1.053a.939.939,0,0,0-.91-1.04C6096.286-1648.495,6095.914-1648.082,6095.914-1647.412Zm67.645,1.254c0-2.545,1.453-4.168,3.724-4.168,2.347,0,3.872,1.634,3.872,4.168s-1.524,4.164-3.872,4.164C6165.011-1641.995,6163.558-1643.6,6163.558-1646.158Zm2.7,0c0,1.519.314,2.156,1.011,2.156s1.022-.636,1.022-2.156-.312-2.148-1.022-2.148S6166.26-1647.684,6166.26-1646.158Zm-33.257.024c0-2.53,1.463-4.178,3.741-4.178,2.333,0,3.542,1.551,3.6,4.607H6135.6c0,1.051.429,1.678,1.109,1.678a.943.943,0,0,0,.782-.369,3.819,3.819,0,0,0,.459-.767l2.3.756a3.531,3.531,0,0,1-3.6,2.413C6134.384-1641.995,6133-1643.558,6133-1646.135Zm2.646-.877h2.2c-.016-.914-.4-1.423-1.067-1.423S6135.69-1647.91,6135.649-1647.012Zm-23.238.853c0-2.545,1.452-4.168,3.727-4.168,2.346,0,3.87,1.634,3.87,4.168s-1.524,4.164-3.87,4.164C6113.863-1641.995,6112.411-1643.6,6112.411-1646.158Zm2.7,0c0,1.519.314,2.156,1.012,2.156s1.023-.636,1.023-2.156-.312-2.148-1.023-2.148S6115.112-1647.684,6115.112-1646.158Zm76.874.13c0-2.635,1.209-4.3,3.114-4.3,1.806,0,2.888,1.513,2.888,4.022v.261h-4.907l-.014.168c0,1.892.765,2.985,2.077,2.985.88,0,1.466-.457,1.949-1.534l.9.44a2.953,2.953,0,0,1-2.858,1.978C6193.139-1642.006,6191.986-1643.5,6191.986-1646.028Zm1.125-.8h3.755v-.152c0-1.5-.7-2.479-1.766-2.479C6193.962-1649.461,6193.224-1648.478,6193.111-1646.829Zm-37.37,4.024a2.721,2.721,0,0,1-.657-2.222v-3.306h-.942v-1.768h.927v-2.042h2.659v2.042h1.751v1.768h-1.751v3.051a4.3,4.3,0,0,0,.014.487c.058.456.416.71.986.71a3.032,3.032,0,0,0,.751-.1v2l-.072.019-.187.025a5.484,5.484,0,0,1-1.208.132A3.008,3.008,0,0,1,6155.741-1642.805Zm-9.291-1.477c0-1.263.825-2.036,2.6-2.487l.8-.2a10.346,10.346,0,0,0,1.312-.394l-.019-.286a.719.719,0,0,0-.809-.726,1.183,1.183,0,0,0-1.152.88l-2.305-.71a3.523,3.523,0,0,1,3.568-2.1c2.179,0,3.33.954,3.33,2.772v4.192a5.877,5.877,0,0,0,.058,1.141H6151.4l-.125-.812a3.424,3.424,0,0,1-.487.426,3.458,3.458,0,0,1-1.9.588A2.264,2.264,0,0,1,6146.451-1644.282Zm3.655-1.01c-.812.284-1.053.512-1.053.954,0,.382.253.611.694.611a1.458,1.458,0,0,0,1-.413,1.313,1.313,0,0,0,.413-.886v-.734A5.183,5.183,0,0,1,6150.105-1645.293Zm34.186-.814c0-2.531,1.153-4.19,2.932-4.19a2.621,2.621,0,0,1,2.021.993V-1653h1.046v9.793a.352.352,0,0,0,.016.113,6.892,6.892,0,0,0,.113.883H6189.4l-.129-.869a2.364,2.364,0,0,1-2.018,1.068C6185.4-1642.007,6184.292-1643.546,6184.292-1646.107Zm1.125-.052c0,2.116.723,3.252,2.06,3.252a2.1,2.1,0,0,0,1.768-1.1v-4.277a2.259,2.259,0,0,0-1.837-1.138C6186.139-1649.417,6185.417-1648.237,6185.417-1646.158Zm-111.4.052c0-2.531,1.15-4.19,2.933-4.19a2.6,2.6,0,0,1,2.015.993V-1653h1.057v9.793a.688.688,0,0,0,.008.113,6.946,6.946,0,0,0,.118.883h-1.024l-.129-.869a2.367,2.367,0,0,1-2.019,1.068C6075.126-1642.007,6074.014-1643.546,6074.014-1646.107Zm1.125-.052c0,2.116.723,3.252,2.06,3.252a2.079,2.079,0,0,0,1.763-1.1v-4.277a2.253,2.253,0,0,0-1.834-1.138C6075.862-1649.417,6075.139-1648.237,6075.139-1646.158Zm101.221,3.952v-4.96c0-.218-.016-.372-.016-.485a.675.675,0,0,0-.7-.654,1.164,1.164,0,0,0-1.007.71v5.389h-2.673v-7.894h2.673v.742l.3-.214c.272-.19.382-.272.514-.355a3.045,3.045,0,0,1,1.477-.383,2.1,2.1,0,0,1,1.648.7c.358.427.441.753.441,1.747v5.661Zm-16.315,0v-7.894h2.687v7.894Zm-18.936,0v-7.894h2.672v1.083a2.781,2.781,0,0,1,2.393-1.293c.113,0,.186,0,.369.014v2.473c-.212-.014-.286-.025-.427-.025-1.294,0-2.335.682-2.335,1.491v4.151Zm-11.587,0v-5.461a.71.71,0,0,0-.742-.638,1,1,0,0,0-.94.754v5.345h-2.658v-4.96l-.014-.244c0-.625-.2-.9-.682-.9a1.093,1.093,0,0,0-.982.754v5.345h-2.687v-7.894h2.674v.742a3.642,3.642,0,0,1,2.33-.968,1.824,1.824,0,0,1,1.822,1.056,3.828,3.828,0,0,1,2.445-1.056,2.082,2.082,0,0,1,1.735.841c.314.424.355.655.355,1.75v5.529Zm-20.592,0v-11.06h2.671v11.06Zm-18.6,0-.624-1.878h-2.932l-.6,1.878h-2.989l3.5-10.252h3.157l3.5,10.252Zm-2.415-6.186-.531,2.088h1.709l-.526-2.088a8.117,8.117,0,0,1-.327-2.13A8.663,8.663,0,0,1,6087.911-1648.393Zm120.436,4.561v-2.7h27.736l-2.729,2.7Zm-126.739-4.806.431-2.184h-.342v-1.637h1.222v1.606l-.943,2.215Zm126.739-.486v-2.7h33.011l-2.715,2.7Zm-73.024-1.59.625-2.5h2.517l-.639,2.5Zm24.738-.152v-2.4h2.673v2.4Zm48.286-3.549v-2.7h38.29l-2.7,2.7Zm-126.013-6.819c0-2.486,1.18-4.055,3.056-4.055s3.07,1.57,3.07,4.055-1.183,4.069-3.058,4.069S6082.333-1658.719,6082.333-1661.234Zm1.07,0c0,2.055.725,3.221,1.986,3.221,1.279,0,2-1.166,2-3.221s-.721-3.2-2-3.2C6084.128-1664.431,6083.4-1663.277,6083.4-1661.234Zm63.211.126c0-2.572,1.182-4.2,3.045-4.2,1.765,0,2.82,1.471,2.82,3.927v.253h-4.793l-.011.168c0,1.845.748,2.916,2.03,2.916.855,0,1.43-.448,1.9-1.5l.875.427a2.871,2.871,0,0,1-2.791,1.931C6147.741-1657.18,6146.614-1658.637,6146.614-1661.108Zm1.1-.776h3.667v-.157c0-1.457-.68-2.413-1.724-2.413C6148.55-1664.455,6147.819-1663.5,6147.716-1661.885Zm-19.742,2.636c0-1.238.754-1.97,2.415-2.417l.85-.222a9.793,9.793,0,0,0,1.139-.43v-.751a1.213,1.213,0,0,0-1.387-1.335,1.919,1.919,0,0,0-1.791,1.346l-.875-.454a2.905,2.905,0,0,1,2.707-1.752,2.627,2.627,0,0,1,1.764.6,1.951,1.951,0,0,1,.613,1.7v3.886c0,.514,0,.834.027,1.07a3.535,3.535,0,0,0,.1.636h-1l-.125-1.111a2.793,2.793,0,0,1-2.319,1.307A1.989,1.989,0,0,1,6127.974-1659.248Zm3.436-1.89a6.865,6.865,0,0,0-.666.193,7.619,7.619,0,0,0-.754.278,1.886,1.886,0,0,0-.6.388,1.441,1.441,0,0,0-.375.991,1.2,1.2,0,0,0,1.262,1.274,2.253,2.253,0,0,0,1.365-.556,1.979,1.979,0,0,0,.732-1.023v-1.906A6.022,6.022,0,0,1,6131.41-1661.138Zm-57.41-1.056c0-3.276,1.5-5.4,3.821-5.4a3.183,3.183,0,0,1,2.636,1.361,3.964,3.964,0,0,1,.668,1.984l-1.069.072c-.2-1.653-.972-2.556-2.21-2.556-1.639,0-2.64,1.708-2.64,4.445,0,2.707.932,4.208,2.6,4.208,1.222,0,2.013-.878,2.319-2.567l1.1.207c-.417,2.138-1.583,3.262-3.446,3.262C6075.417-1657.18,6074-1659.058,6074-1662.194Zm69.381,4.487c-.3-.349-.36-.638-.36-1.724v-4.82h-1.265v-.831h1.292V-1667h1.03v1.914h1.972v.831h-1.972v4.85c0,.221,0,.473.011.566.028.5.347.753.889.753a2.617,2.617,0,0,0,1.072-.253v.88a3.936,3.936,0,0,1-1.323.247A1.776,1.776,0,0,1,6143.381-1657.707Zm-7.417-.181a2.683,2.683,0,0,1-.5-1.958v-5.237h1.028v5.169a4.686,4.686,0,0,0,.067.831,1.185,1.185,0,0,0,1.265,1.009c.737,0,1.389-.453,2.014-1.438v-5.572h1.043v7.705h-1.059v-1.134a1.456,1.456,0,0,1-.236.291,2.5,2.5,0,0,1-2.014,1.012A2.106,2.106,0,0,1,6135.963-1657.887Zm-21.918,0a2.676,2.676,0,0,1-.5-1.958v-5.237h1.026v5.169a4.345,4.345,0,0,0,.071.831,1.181,1.181,0,0,0,1.263,1.009c.737,0,1.389-.453,2.016-1.438v-5.572h1.041v7.705h-1.055v-1.134a1.456,1.456,0,0,1-.237.291,2.5,2.5,0,0,1-2.015,1.012A2.1,2.1,0,0,1,6114.045-1657.887Zm11.351.511v-5.149a5.112,5.112,0,0,0-.044-.778,1.236,1.236,0,0,0-1.306-1.128,2.393,2.393,0,0,0-1.973,1.444v5.611h-1.039v-7.705h1.026v1.1a2.869,2.869,0,0,1,2.267-1.321,2.114,2.114,0,0,1,1.65.748,2.771,2.771,0,0,1,.46,1.893v5.286Zm-14.977,0v-5.207a4.847,4.847,0,0,0-.041-.759,1.277,1.277,0,0,0-1.323-1.1,2.124,2.124,0,0,0-1.857,1.472v5.592h-1.056v-5.165a5.111,5.111,0,0,0-.03-.775,1.252,1.252,0,0,0-1.275-1.125,2.366,2.366,0,0,0-1.959,1.445v5.619h-1.042v-7.705h1.013v1.072a2.791,2.791,0,0,1,2.261-1.279,1.859,1.859,0,0,1,1.936,1.417,2.7,2.7,0,0,1,2.292-1.417,2.154,2.154,0,0,1,1.692.762,2.9,2.9,0,0,1,.448,1.849v5.3Zm-11.705,0v-5.207a5.207,5.207,0,0,0-.044-.759,1.276,1.276,0,0,0-1.32-1.1,2.128,2.128,0,0,0-1.862,1.472v5.592h-1.056v-5.165a5.461,5.461,0,0,0-.028-.775,1.252,1.252,0,0,0-1.276-1.125,2.358,2.358,0,0,0-1.959,1.445v5.619h-1.042v-7.705h1.014v1.072a2.794,2.794,0,0,1,2.264-1.279,1.852,1.852,0,0,1,1.931,1.417,2.7,2.7,0,0,1,2.291-1.417,2.157,2.157,0,0,1,1.7.762,2.894,2.894,0,0,1,.443,1.849v5.3Zm109.633-2.332v-2.7h43.583l-2.587,2.7Zm0-5.29v-2.7H6257.2l-2.676,2.7Zm-59.522-.707,1.072-2.1h1.027l-1.083,2.1Z" transform="translate(-5840.792 1797.084)" fill="#fff" stroke="rgba(0,0,0,0)" stroke-miterlimit="10" stroke-width="1"/></svg>